<svg id="svg" version="1.1" xmlns="http://www.w3.org/2000/svg" xmlns:xlink="http://www.w3.org/1999/xlink" width="400" height="400" viewBox="0, 0, 400,400"><g id="svgg"><path id="path0" d="M266.481 137.818 C 260.094 138.739,253.099 141.982,246.020 147.305 C 239.649 152.095,213.456 175.711,184.259 202.991 C 159.669 225.966,151.284 233.127,141.081 239.870 C 124.313 250.950,108.647 253.615,96.296 247.489 L 93.519 246.111 93.470 239.815 C 93.284 215.683,82.265 199.614,69.708 205.164 C 59.641 209.613,60.961 231.073,72.227 246.118 C 74.216 248.774,74.639 250.000,73.566 250.000 C 73.330 250.000,70.806 248.193,67.957 245.984 C 52.655 234.118,39.453 231.199,31.881 238.007 C 24.740 244.427,27.241 252.452,38.775 260.126 C 49.066 266.973,62.806 268.683,82.407 265.555 C 87.680 264.713,87.092 264.354,89.567 269.939 C 92.626 276.843,103.052 295.034,109.450 304.630 C 127.618 331.877,150.597 346.780,182.222 351.827 C 190.062 353.078,190.004 353.084,194.168 350.626 C 215.181 338.219,228.704 316.633,231.104 291.667 C 231.575 286.768,231.559 287.530,231.274 283.704 C 230.823 277.635,232.990 271.611,236.383 269.507 C 239.889 267.332,242.690 267.852,249.579 271.953 C 262.235 279.488,268.510 281.261,282.593 281.283 C 301.560 281.312,315.282 275.211,326.672 261.686 C 335.221 251.533,339.694 228.683,336.680 210.556 C 330.226 171.740,293.700 133.893,266.481 137.818 M137.685 169.745 C 128.162 174.654,120.370 178.815,120.370 178.993 C 120.370 179.171,122.235 181.917,124.513 185.096 L 128.656 190.875 135.346 183.932 L 142.037 176.988 151.597 172.430 C 156.854 169.923,161.143 167.726,161.128 167.547 C 161.088 167.085,155.584 160.733,155.265 160.780 C 155.119 160.802,147.208 164.836,137.685 169.745 M163.792 169.736 C 149.871 176.573,146.317 178.461,146.436 178.957 C 146.517 179.300,148.611 182.402,151.089 185.850 L 155.593 192.120 162.302 185.226 L 169.010 178.333 178.666 173.771 C 183.977 171.262,188.386 169.144,188.465 169.066 C 188.685 168.846,182.086 161.161,181.667 161.149 C 181.463 161.143,173.419 165.007,163.792 169.736 M190.926 171.122 C 180.360 176.267,173.534 179.794,173.557 180.095 C 173.579 180.367,175.828 183.689,178.555 187.477 L 183.513 194.364 193.343 184.682 C 198.749 179.357,205.285 173.092,207.868 170.761 L 212.564 166.521 210.957 164.650 C 208.807 162.144,210.452 161.612,190.926 171.122 M349.074 182.328 C 344.858 183.937,340.964 187.129,338.527 190.973 L 337.483 192.618 338.144 194.801 C 338.507 196.002,339.199 198.954,339.680 201.362 C 340.162 203.770,340.682 205.797,340.836 205.865 C 340.990 205.933,341.024 206.137,340.912 206.319 C 340.800 206.500,340.897 208.444,341.128 210.639 C 341.358 212.834,341.657 215.674,341.792 216.951 L 342.037 219.273 344.815 217.943 C 354.561 213.276,365.898 202.217,367.414 195.897 C 369.750 186.162,359.294 178.426,349.074 182.328 M342.635 202.833 C 342.020 204.025,341.509 204.879,341.499 204.730 C 341.472 204.317,343.459 200.372,343.615 200.529 C 343.691 200.605,343.250 201.642,342.635 202.833 M346.002 204.722 C 344.260 206.801,341.414 209.830,342.239 208.727 C 343.335 207.262,347.101 202.963,347.288 202.963 C 347.392 202.963,346.813 203.755,346.002 204.722 M351.111 205.960 C 348.918 207.845,343.844 211.644,344.630 210.812 C 345.453 209.940,351.930 204.851,352.222 204.847 C 352.324 204.846,351.824 205.347,351.111 205.960 M206.296 225.391 C 221.576 228.980,229.521 246.511,222.483 261.111 C 221.845 262.435,221.317 263.685,221.310 263.889 C 221.302 264.099,219.430 264.369,216.990 264.512 C 206.375 265.136,198.061 268.670,190.190 275.906 C 187.829 278.077,187.103 277.935,188.338 275.546 C 188.671 274.902,188.890 274.340,188.824 274.296 C 188.758 274.252,187.562 273.742,186.166 273.162 C 169.088 266.063,167.139 241.702,182.758 230.556 C 189.685 225.613,198.761 223.621,206.296 225.391 " stroke="none" fill="#8cd2f2" fill-rule="evenodd"></path><path id="path1" d="M238.969 27.816 C 236.698 28.198,234.599 29.192,232.881 30.698 C 232.075 31.405,230.919 31.913,229.444 32.209 C 223.545 33.394,219.877 34.912,215.489 37.987 L 212.521 40.067 210.708 38.034 C 201.118 27.273,182.648 32.356,181.248 46.141 L 181.019 48.394 178.630 49.435 C 167.215 54.407,165.903 70.785,176.296 78.560 C 187.322 86.808,201.005 87.204,212.533 79.609 L 215.876 77.407 219.653 77.407 L 223.430 77.407 223.240 78.611 C 223.136 79.273,220.999 95.497,218.492 114.665 L 213.933 149.515 212.278 149.017 C 208.662 147.928,205.929 148.564,198.100 152.312 L 193.792 154.375 191.527 151.844 C 188.388 148.339,186.114 147.256,181.852 147.239 L 178.704 147.226 172.642 150.086 L 166.581 152.947 164.933 151.115 C 161.404 147.189,155.619 145.785,150.878 147.704 C 147.280 149.160,109.813 168.102,108.839 168.958 C 107.295 170.314,92.731 186.111,92.009 187.213 C 91.651 187.759,91.094 189.011,90.772 189.995 L 90.185 191.785 87.260 189.978 C 69.441 178.977,47.999 192.277,45.614 215.810 L 45.370 218.214 40.185 218.295 C 15.984 218.668,2.762 242.467,15.958 261.899 C 26.305 277.135,47.416 284.250,72.407 280.923 C 74.852 280.598,77.166 280.298,77.550 280.258 C 78.123 280.198,78.474 280.855,79.496 283.889 C 103.542 355.316,168.251 388.269,238.438 364.830 C 279.157 351.231,312.527 325.153,336.248 288.393 C 341.567 280.150,341.390 281.116,337.929 279.217 C 333.373 276.716,333.338 276.630,335.793 273.929 C 336.924 272.685,338.981 270.167,340.364 268.333 C 341.748 266.500,343.232 264.683,343.662 264.294 C 344.092 263.906,344.444 263.360,344.444 263.080 C 344.444 262.800,345.355 260.701,346.468 258.415 C 349.570 252.043,351.840 242.417,352.459 233.015 L 352.693 229.444 356.624 227.125 C 382.521 211.845,389.921 189.957,374.451 174.399 C 365.460 165.357,353.806 163.515,340.370 169.012 C 339.962 169.180,339.186 168.171,337.440 165.200 C 333.785 158.986,328.548 152.259,322.697 146.264 L 317.376 140.811 318.171 138.461 C 319.745 133.807,318.652 128.169,315.480 124.585 C 314.780 123.795,300.222 102.898,283.129 78.148 C 247.376 26.380,249.234 28.779,244.259 27.969 C 241.403 27.504,240.910 27.490,238.969 27.816 M274.279 85.000 C 291.739 110.259,306.436 131.417,306.938 132.017 C 308.671 134.085,307.451 136.669,303.235 139.863 C 301.965 140.825,300.843 141.680,300.741 141.762 C 300.640 141.845,301.057 142.273,301.667 142.714 C 315.822 152.940,327.608 167.590,333.897 182.778 L 335.648 187.006 336.991 185.407 C 347.786 172.547,368.488 175.547,371.134 190.354 C 372.895 200.210,358.949 216.041,343.850 221.326 L 341.959 221.988 341.713 227.143 C 340.525 252.040,332.031 266.955,312.798 277.917 C 310.241 279.374,309.986 279.610,310.770 279.790 C 311.263 279.903,314.500 280.514,317.963 281.147 C 326.503 282.710,326.587 282.832,322.900 288.286 C 298.786 323.960,257.581 351.247,215.741 359.249 C 157.121 370.461,105.536 335.606,87.761 272.778 C 86.897 269.722,86.162 267.184,86.128 267.138 C 86.094 267.092,83.660 267.542,80.718 268.139 C 58.741 272.599,45.582 271.309,33.923 263.552 C 23.287 256.475,19.436 247.631,23.453 239.504 C 29.330 227.613,44.914 226.018,59.689 235.794 C 61.184 236.783,62.593 237.713,62.820 237.861 C 63.047 238.008,62.350 236.786,61.270 235.146 C 51.415 220.166,58.837 197.222,73.538 197.222 C 88.711 197.222,100.097 220.084,95.912 242.148 C 95.385 244.927,95.247 244.739,98.192 245.253 C 107.670 246.910,119.478 244.900,129.352 239.949 C 132.897 238.172,133.033 238.936,127.870 231.683 C 123.639 225.739,117.325 216.812,106.657 201.690 C 103.792 197.629,101.497 194.020,101.557 193.670 C 101.617 193.320,104.833 189.600,108.704 185.402 L 115.741 177.771 135.574 167.811 C 149.063 161.036,155.579 157.947,155.944 158.153 C 156.240 158.320,158.061 160.302,159.992 162.559 C 162.745 165.779,163.652 166.615,164.199 166.442 C 164.583 166.320,168.455 164.501,172.803 162.399 C 177.152 160.298,181.037 158.474,181.437 158.347 C 182.027 158.160,182.980 159.063,186.472 163.114 L 190.780 168.112 193.446 166.880 C 194.912 166.203,199.089 164.259,202.728 162.559 L 209.345 159.469 210.282 160.568 C 210.798 161.172,211.903 162.451,212.739 163.409 L 214.259 165.152 219.444 160.724 L 224.630 156.296 224.691 154.352 C 224.743 152.715,236.602 61.160,237.241 57.459 L 237.456 56.215 236.228 57.618 C 229.896 64.852,220.571 68.026,213.558 65.334 C 213.315 65.241,211.624 66.342,209.799 67.782 C 200.692 74.965,193.853 75.727,184.658 70.585 C 181.409 68.768,180.204 66.826,180.454 63.811 C 180.835 59.223,185.977 57.583,190.147 60.719 C 194.407 63.923,198.324 64.576,201.852 62.671 C 204.465 61.260,204.464 61.256,200.741 58.499 C 192.830 52.639,190.855 49.469,192.961 46.015 C 195.581 41.718,199.585 42.330,204.176 47.728 C 206.847 50.868,211.120 54.815,211.848 54.815 C 212.029 54.815,214.062 53.302,216.366 51.454 C 224.976 44.547,229.587 42.593,237.271 42.593 C 239.240 42.593,239.259 42.582,239.259 41.465 C 239.259 39.988,240.763 38.412,241.801 38.800 C 242.206 38.952,256.701 59.571,274.279 85.000 M228.432 51.765 C 225.964 53.133,220.895 57.315,221.260 57.680 C 221.364 57.784,222.165 57.498,223.040 57.044 C 224.422 56.327,225.702 55.347,230.669 51.206 C 232.142 49.978,231.255 50.199,228.432 51.765 M194.815 227.956 C 181.861 230.869,172.972 244.148,176.102 255.909 C 177.808 262.319,183.422 268.646,189.448 270.947 L 191.068 271.566 193.475 269.413 L 195.881 267.261 194.885 266.655 C 186.981 261.848,187.065 245.789,195.010 242.754 C 203.725 239.426,212.473 251.930,208.369 261.852 C 208.171 262.330,208.768 262.396,212.679 262.325 L 217.219 262.242 218.198 260.533 C 228.185 243.094,214.193 223.599,194.815 227.956 M231.343 288.551 C 231.236 289.246,231.049 291.148,230.928 292.778 C 229.225 315.672,214.899 338.269,194.330 350.505 L 190.388 352.850 194.811 353.088 C 232.087 355.092,287.702 327.771,314.004 294.534 L 315.230 292.985 311.983 295.023 C 291.764 307.717,262.470 311.911,246.336 304.422 C 239.846 301.409,234.498 295.761,232.370 289.671 C 231.551 287.326,231.534 287.308,231.343 288.551 " stroke="none" fill="#f5f9fb" fill-rule="evenodd"></path><path id="path2" d="M240.399 39.233 C 240.110 39.417,239.777 40.289,239.659 41.172 L 239.444 42.778 235.741 43.007 C 228.196 43.473,225.034 44.835,217.407 50.903 C 214.454 53.253,211.951 55.178,211.845 55.180 C 211.255 55.195,206.566 50.803,203.854 47.696 C 199.922 43.189,198.786 42.728,195.096 44.142 C 192.923 44.975,191.837 48.948,193.110 51.407 C 193.695 52.537,198.541 56.788,201.977 59.185 C 204.819 61.169,204.813 61.357,201.852 62.894 C 198.113 64.835,194.279 64.156,189.815 60.763 C 184.280 56.556,177.803 62.314,181.750 67.933 C 183.246 70.063,188.698 72.788,192.683 73.397 C 198.479 74.283,202.747 72.858,209.424 67.805 L 213.148 64.988 215.000 65.473 C 222.028 67.316,228.146 65.117,235.287 58.180 C 237.647 55.887,237.784 55.808,237.590 56.853 C 236.770 61.268,224.830 154.418,224.988 155.164 C 225.189 156.111,214.979 165.453,214.107 165.119 C 213.936 165.054,212.839 163.875,211.669 162.500 C 209.042 159.411,210.199 159.255,199.956 164.073 C 195.193 166.313,191.129 168.146,190.925 168.147 C 190.720 168.148,188.720 165.993,186.480 163.358 C 184.240 160.723,182.192 158.557,181.929 158.543 C 181.666 158.530,177.426 160.437,172.506 162.781 C 167.587 165.125,163.454 166.917,163.323 166.762 C 159.172 161.888,155.785 158.148,155.522 158.148 C 155.335 158.148,146.391 162.552,135.647 167.934 L 116.111 177.720 108.889 185.546 C 104.917 189.850,101.667 193.576,101.667 193.826 C 101.667 194.076,104.000 197.577,106.852 201.606 C 109.704 205.635,114.294 212.130,117.053 216.040 C 119.811 219.949,124.369 226.386,127.182 230.344 C 129.995 234.302,132.381 237.762,132.485 238.032 C 132.953 239.251,120.425 244.262,114.177 245.355 C 108.983 246.263,96.610 245.944,95.486 244.873 C 95.345 244.739,95.476 243.046,95.775 241.111 C 97.722 228.542,95.343 215.309,89.773 207.720 C 79.869 194.229,66.968 194.023,60.112 207.246 C 54.894 217.308,55.807 227.543,62.766 236.984 C 63.720 238.278,64.296 239.211,64.045 239.056 C 63.794 238.901,62.387 237.912,60.918 236.858 C 56.480 233.674,51.092 231.266,45.926 230.159 C 26.426 225.978,14.552 244.825,28.089 258.470 C 40.072 270.547,56.597 273.247,82.963 267.434 C 84.694 267.052,86.145 266.771,86.185 266.808 C 86.226 266.846,87.021 269.506,87.951 272.718 C 101.865 320.757,134.721 352.804,177.222 359.788 C 225.391 367.703,287.175 338.230,320.440 291.468 C 326.919 282.360,327.253 283.046,315.278 280.890 C 308.925 279.747,308.986 279.784,311.377 278.518 C 322.886 272.424,333.430 261.030,337.785 249.982 C 339.496 245.640,341.469 232.468,341.478 225.327 L 341.481 221.951 343.796 221.118 C 358.381 215.869,371.730 201.329,371.024 191.459 C 369.945 176.387,347.798 172.447,337.210 185.444 C 335.831 187.138,335.519 187.360,335.323 186.792 C 329.948 171.215,316.880 154.000,302.521 143.582 C 299.988 141.744,300.029 141.898,301.760 140.741 C 307.460 136.930,308.488 134.411,305.805 130.837 C 304.924 129.664,290.400 108.704,273.531 84.259 C 239.960 35.615,241.916 38.274,240.399 39.233 M238.598 44.270 C 240.297 44.922,238.864 46.965,236.408 47.393 C 229.695 48.562,225.836 50.821,218.725 57.743 C 211.340 64.931,205.732 69.333,201.650 71.147 C 192.791 75.083,177.361 67.397,182.934 61.823 C 184.545 60.213,186.686 60.302,189.280 62.086 C 197.278 67.588,199.681 66.947,213.889 55.524 C 225.754 45.984,227.242 45.153,233.666 44.471 C 237.500 44.065,238.009 44.044,238.598 44.270 M200.913 46.376 C 201.531 47.071,203.016 48.765,204.212 50.140 C 205.408 51.516,207.362 53.453,208.554 54.444 L 210.721 56.248 208.300 58.175 L 205.879 60.101 202.723 57.958 C 197.054 54.107,193.889 50.796,193.889 48.717 C 193.889 44.910,198.302 43.440,200.913 46.376 M273.464 88.515 C 290.269 112.041,303.985 131.323,303.944 131.365 C 303.903 131.406,303.123 131.260,302.212 131.040 C 287.569 127.506,244.467 138.083,229.945 148.774 L 227.682 150.439 227.895 149.201 C 228.146 147.743,229.379 138.936,234.654 100.926 C 238.899 70.340,240.772 56.773,241.725 49.706 C 242.063 47.202,242.467 45.286,242.623 45.447 C 242.780 45.609,256.658 64.989,273.464 88.515 M238.317 50.648 C 237.789 55.054,229.791 62.559,223.754 64.314 C 221.634 64.931,217.083 64.849,215.223 64.161 C 213.775 63.625,218.333 59.917,221.200 59.297 C 223.831 58.728,226.395 57.045,231.388 52.609 C 237.021 47.603,238.740 47.116,238.317 50.648 M229.744 52.227 C 226.793 54.834,222.800 57.610,221.481 57.972 C 219.630 58.479,225.472 53.094,228.509 51.493 C 232.376 49.454,232.679 49.634,229.744 52.227 M303.869 132.787 C 306.269 133.988,305.561 135.410,300.913 138.727 C 298.136 140.708,298.691 140.706,295.660 138.751 C 292.249 136.551,288.399 134.655,285.331 133.664 C 283.927 133.210,282.962 132.778,283.187 132.703 C 286.342 131.651,301.724 131.714,303.869 132.787 M279.199 138.367 C 302.764 144.266,329.457 176.013,336.060 205.994 C 340.543 226.348,336.249 251.037,326.224 262.552 C 307.653 283.882,276.351 288.124,250.591 272.799 C 240.772 266.959,236.583 267.093,233.421 273.349 C 228.057 283.961,233.577 297.735,245.566 303.657 C 262.067 311.807,291.348 307.796,312.222 294.526 C 316.601 291.742,316.660 291.814,313.294 295.822 C 289.029 324.709,243.760 349.493,208.942 352.952 C 177.470 356.079,142.055 343.285,122.393 321.686 C 112.602 310.931,98.245 288.677,90.480 272.222 C 86.979 264.803,87.356 265.363,85.903 265.419 C 85.202 265.445,82.880 265.735,80.741 266.063 C 58.705 269.438,43.993 266.233,32.907 255.642 C 20.029 243.338,32.729 229.807,51.357 235.984 C 56.684 237.750,60.978 240.306,68.827 246.381 C 74.572 250.828,75.473 250.797,72.067 246.270 C 61.041 231.613,59.383 210.580,68.848 205.429 C 81.425 198.583,93.275 214.521,93.560 238.664 C 93.627 244.305,93.762 246.106,94.138 246.346 C 103.255 252.155,118.069 251.639,131.667 245.038 C 144.362 238.874,153.536 231.415,187.969 199.260 C 207.903 180.644,232.610 158.238,241.926 150.327 C 255.218 139.040,266.906 135.290,279.199 138.367 M238.858 145.708 C 237.665 146.888,227.186 154.279,227.088 154.009 C 226.911 153.521,229.043 151.319,231.032 149.937 C 233.112 148.493,239.573 145.001,238.858 145.708 M158.841 164.156 C 160.466 166.034,161.735 167.667,161.662 167.785 C 161.590 167.902,157.176 170.065,151.854 172.592 L 142.178 177.185 135.496 184.147 C 131.821 187.975,128.681 191.027,128.520 190.927 C 127.915 190.553,119.969 179.168,120.080 178.835 C 120.237 178.364,154.465 160.774,155.259 160.755 C 155.605 160.747,157.217 162.278,158.841 164.156 M182.051 161.024 C 183.150 161.803,188.932 168.988,188.656 169.232 C 188.479 169.389,183.947 171.573,178.586 174.087 C 171.424 177.444,168.589 178.958,167.898 179.791 C 167.381 180.415,164.393 183.530,161.258 186.712 L 155.558 192.499 150.872 185.985 C 148.295 182.403,146.118 179.211,146.034 178.893 C 145.919 178.453,150.138 176.210,163.590 169.560 C 183.059 159.935,181.518 160.647,182.051 161.024 M211.052 164.376 L 212.917 166.529 208.043 170.950 C 205.363 173.381,198.813 179.662,193.489 184.907 C 188.165 190.153,183.660 194.437,183.478 194.427 C 182.874 194.396,172.840 179.975,173.186 179.634 C 173.547 179.278,208.549 162.242,208.945 162.230 C 209.077 162.226,210.025 163.191,211.052 164.376 M148.676 187.213 L 153.261 193.871 149.871 197.566 C 144.562 203.355,140.668 207.077,140.049 206.958 C 139.572 206.866,131.504 196.079,130.316 193.945 C 129.838 193.087,142.300 180.266,143.434 180.449 C 143.808 180.510,146.062 183.418,148.676 187.213 M118.588 181.389 C 118.892 181.745,120.757 184.405,122.730 187.300 L 126.318 192.563 119.925 199.429 C 116.408 203.206,113.420 206.296,113.284 206.296 C 113.016 206.296,104.860 194.994,104.555 194.199 C 104.324 193.595,116.613 180.775,117.443 180.755 C 117.768 180.747,118.283 181.032,118.588 181.389 M358.957 181.843 C 373.230 186.251,370.163 200.923,352.298 213.693 C 349.866 215.432,342.408 219.630,341.751 219.630 C 341.660 219.630,341.469 217.588,341.325 215.093 C 341.021 209.828,339.680 201.470,338.300 196.239 L 337.338 192.591 338.267 191.018 C 342.654 183.590,351.669 179.592,358.957 181.843 M175.934 188.530 C 178.607 192.407,180.741 195.719,180.675 195.890 C 180.413 196.574,167.746 208.148,167.261 208.148 C 166.706 208.148,157.812 195.953,157.503 194.768 C 157.311 194.037,169.677 181.537,170.629 181.499 C 170.874 181.489,173.261 184.653,175.934 188.530 M141.358 185.401 L 140.678 186.334 143.863 190.574 C 147.372 195.245,147.296 195.190,148.490 193.920 C 149.466 192.880,149.630 193.249,145.954 188.212 C 143.064 184.250,142.463 183.883,141.358 185.401 M115.798 185.492 C 115.461 185.865,115.185 186.392,115.185 186.663 C 115.185 187.092,119.816 193.608,120.846 194.630 C 121.598 195.375,120.575 193.859,118.077 190.523 C 115.371 186.910,115.227 186.532,116.169 185.492 C 116.506 185.120,116.698 184.815,116.596 184.815 C 116.494 184.815,116.135 185.120,115.798 185.492 M119.079 187.628 C 120.264 189.238,121.623 191.071,122.099 191.702 C 123.134 193.075,123.148 193.240,122.315 194.230 C 121.667 194.999,121.668 194.999,122.500 194.294 C 122.958 193.906,123.333 193.433,123.333 193.243 C 123.333 192.821,117.875 185.289,117.321 184.946 C 117.102 184.811,117.894 186.018,119.079 187.628 M145.185 187.659 C 146.306 189.217,147.623 191.047,148.114 191.726 C 148.986 192.933,148.583 194.444,147.389 194.444 C 146.317 194.444,141.050 186.237,141.677 185.544 C 142.688 184.427,142.993 184.611,145.185 187.659 M168.702 186.299 C 168.332 186.707,168.126 187.138,168.244 187.256 C 168.362 187.374,168.645 187.123,168.872 186.698 C 169.570 185.395,170.126 185.794,172.824 189.537 C 176.223 194.251,176.105 194.003,175.349 194.838 C 174.423 195.862,174.513 195.933,171.340 191.667 C 168.834 188.297,167.483 186.734,168.380 188.241 C 169.476 190.082,174.195 195.926,174.586 195.926 C 175.162 195.926,176.296 194.748,176.296 194.149 C 176.296 193.477,170.337 185.556,169.831 185.556 C 169.580 185.556,169.071 185.890,168.702 186.299 M138.370 189.589 C 137.732 190.295,137.804 190.449,140.800 194.783 C 143.911 199.282,144.628 199.854,145.603 198.611 C 146.063 198.025,146.050 198.011,145.468 198.467 C 144.452 199.263,143.977 198.839,140.956 194.440 C 138.682 191.130,138.201 190.198,138.547 189.781 C 139.359 188.803,139.901 189.260,142.761 193.333 C 145.241 196.866,145.929 197.731,145.925 197.315 C 145.920 196.837,140.003 189.049,139.584 188.968 C 139.278 188.910,138.732 189.189,138.370 189.589 M112.667 189.704 C 111.921 190.449,112.121 190.904,115.073 195.195 C 118.225 199.777,118.601 200.082,119.726 198.957 L 120.501 198.182 118.998 196.035 C 118.171 194.855,116.776 192.847,115.898 191.574 C 114.324 189.290,113.536 188.834,112.667 189.704 M115.471 191.574 C 120.202 198.051,120.710 199.259,118.704 199.259 C 118.187 199.259,112.593 191.321,112.593 190.588 C 112.593 188.961,113.886 189.405,115.471 191.574 M165.508 190.648 C 165.048 191.235,165.061 191.248,165.643 190.792 C 166.639 190.011,167.030 190.359,170.132 194.786 C 172.503 198.170,172.947 199.018,172.580 199.460 C 171.730 200.484,171.149 199.986,168.133 195.648 C 166.468 193.255,165.166 191.490,165.239 191.726 C 165.606 192.923,171.005 200.346,171.517 200.357 C 173.795 200.408,173.530 199.112,170.314 194.480 C 167.204 189.999,166.474 189.417,165.508 190.648 M134.630 192.962 C 133.808 193.870,133.877 194.027,137.037 198.451 C 139.485 201.878,140.016 202.237,141.250 201.302 C 142.154 200.618,142.015 200.310,138.816 195.901 C 135.988 192.003,135.688 191.793,134.630 192.962 M108.693 193.482 C 108.088 194.406,108.116 194.465,110.925 198.320 C 112.489 200.466,113.849 202.222,113.947 202.222 C 114.146 202.222,113.355 201.066,110.443 197.104 C 108.525 194.494,108.475 194.366,109.098 193.678 C 110.056 192.619,110.081 192.639,113.118 196.918 C 114.663 199.094,115.919 200.719,115.910 200.530 C 115.879 199.839,110.486 192.775,109.905 192.663 C 109.576 192.599,109.030 192.968,108.693 193.482 M137.473 194.541 C 138.221 195.608,139.452 197.354,140.207 198.421 C 141.591 200.377,141.577 201.481,140.169 201.481 C 138.943 201.481,134.127 193.977,134.819 193.143 C 135.563 192.246,136.037 192.496,137.473 194.541 M161.724 194.011 C 160.871 194.953,160.816 194.819,163.763 198.947 C 166.628 202.959,166.953 203.232,168.119 202.608 C 169.310 201.971,169.094 201.399,166.087 197.224 C 163.182 193.191,162.752 192.875,161.724 194.011 M165.859 197.416 C 168.618 201.266,168.920 201.989,167.933 202.368 C 166.934 202.751,166.864 202.688,164.138 198.927 C 161.321 195.040,161.230 194.844,161.926 194.148 C 162.749 193.325,163.191 193.692,165.859 197.416 M129.173 196.574 C 131.094 199.026,137.778 208.835,137.778 209.200 C 137.778 209.840,125.493 222.222,124.859 222.222 C 124.308 222.222,114.815 209.451,114.815 208.711 C 114.815 208.344,127.450 195.185,127.802 195.185 C 127.958 195.185,128.575 195.810,129.173 196.574 M160.037 203.231 C 162.535 206.842,164.646 210.146,164.728 210.574 C 164.894 211.442,153.117 223.047,151.852 223.262 C 151.174 223.377,141.852 210.924,141.852 209.903 C 141.852 209.323,154.479 196.667,155.058 196.667 C 155.298 196.667,157.538 199.621,160.037 203.231 M130.447 203.740 C 132.876 207.044,133.393 207.971,133.084 208.462 C 132.242 209.798,131.538 209.312,128.496 205.300 C 126.827 203.098,125.524 201.479,125.601 201.701 C 125.987 202.819,131.376 209.605,131.887 209.617 C 132.580 209.632,133.838 208.354,133.649 207.827 C 133.400 207.133,127.961 199.661,127.694 199.645 C 127.546 199.637,128.784 201.479,130.447 203.740 M153.146 201.484 C 152.776 201.892,152.570 202.323,152.688 202.441 C 152.806 202.559,153.089 202.308,153.316 201.884 C 154.006 200.594,154.523 200.967,157.252 204.724 C 160.663 209.419,160.551 209.186,159.794 210.023 C 158.850 211.066,158.853 211.069,155.920 207.130 C 153.215 203.496,152.198 202.263,152.792 203.333 C 153.471 204.558,158.565 211.111,158.838 211.111 C 159.471 211.111,160.811 209.302,160.532 208.824 C 159.376 206.843,154.659 200.741,154.284 200.741 C 154.028 200.741,153.516 201.075,153.146 201.484 M122.967 204.625 C 122.351 205.367,122.532 205.740,125.766 210.406 C 128.678 214.608,129.087 214.917,130.164 213.727 C 130.915 212.897,131.092 213.266,127.450 208.056 C 124.678 204.090,123.903 203.497,122.967 204.625 M125.571 205.847 C 126.089 206.604,127.407 208.507,128.499 210.078 C 130.481 212.927,130.651 214.074,129.090 214.074 C 128.381 214.074,122.826 205.706,123.086 205.028 C 123.466 204.038,124.584 204.406,125.571 205.847 M150.278 205.586 C 149.921 205.793,149.630 206.218,149.630 206.531 C 149.630 207.144,155.204 215.525,155.625 215.544 C 155.765 215.550,154.621 213.764,153.084 211.574 C 149.720 206.783,149.321 205.556,151.127 205.556 C 152.253 205.556,157.464 214.141,156.815 214.925 L 156.139 215.741 157.014 214.934 L 157.889 214.128 154.778 209.778 C 151.481 205.169,151.294 204.995,150.278 205.586 M119.362 207.870 C 119.165 208.125,118.887 208.583,118.744 208.889 C 118.601 209.194,118.762 209.069,119.102 208.611 C 120.100 207.266,120.567 207.581,123.351 211.481 C 124.806 213.519,126.075 215.185,126.171 215.185 C 126.370 215.185,125.538 213.964,122.702 210.093 C 120.756 207.436,120.058 206.971,119.362 207.870 M146.313 209.427 L 145.460 210.335 148.062 213.979 C 149.493 215.984,150.958 217.867,151.318 218.164 C 151.677 218.461,150.977 217.370,149.763 215.741 C 145.619 210.180,145.754 210.434,146.499 209.610 C 147.428 208.584,147.337 208.509,150.371 212.754 C 151.891 214.880,153.190 216.563,153.259 216.494 C 153.441 216.312,147.743 208.519,147.429 208.519 C 147.285 208.519,146.782 208.927,146.313 209.427 M119.702 210.833 C 120.198 211.495,121.399 213.162,122.371 214.537 C 124.234 217.171,124.603 217.382,125.763 216.475 C 126.426 215.957,126.401 215.948,125.436 216.362 C 124.745 216.658,124.307 216.683,124.140 216.435 C 122.858 214.525,119.165 209.630,119.005 209.630 C 118.893 209.630,119.207 210.171,119.702 210.833 M140.453 212.500 C 142.211 214.509,149.645 225.722,149.489 226.129 C 149.119 227.093,135.021 237.436,134.681 236.994 C 132.772 234.513,126.875 225.941,126.751 225.466 C 126.593 224.864,138.914 211.852,139.642 211.852 C 139.776 211.852,140.140 212.144,140.453 212.500 M138.077 216.574 C 137.771 216.931,137.399 217.472,137.252 217.778 C 137.104 218.083,137.394 217.854,137.895 217.268 C 139.038 215.932,138.931 215.853,142.393 220.571 L 145.283 224.511 144.514 225.280 C 143.537 226.258,143.362 226.119,140.157 221.814 C 138.807 220.002,137.617 218.519,137.511 218.519 C 137.406 218.519,137.727 219.060,138.226 219.722 C 138.725 220.384,140.032 222.134,141.131 223.611 C 143.343 226.584,143.571 226.695,144.795 225.391 L 145.645 224.486 143.140 221.039 C 139.218 215.643,139.024 215.471,138.077 216.574 M134.881 221.129 C 134.269 221.699,134.156 222.044,134.424 222.518 C 135.303 224.073,140.259 230.889,140.590 230.999 C 141.202 231.203,142.637 229.640,142.322 229.115 C 141.474 227.705,136.478 220.806,136.378 220.906 C 136.313 220.971,137.597 222.910,139.232 225.215 C 142.036 229.169,142.170 229.444,141.592 230.082 C 140.714 231.052,140.632 230.978,137.406 226.295 L 134.480 222.047 135.268 221.209 C 136.250 220.163,135.978 220.107,134.881 221.129 M130.983 224.751 C 130.646 225.124,130.370 225.555,130.370 225.710 C 130.370 226.294,136.012 233.704,136.457 233.704 C 136.944 233.704,138.148 232.546,138.148 232.077 C 138.148 231.715,132.995 224.508,132.532 224.222 C 132.333 224.099,133.459 225.787,135.034 227.974 C 137.301 231.121,137.819 232.075,137.519 232.549 C 136.788 233.709,135.965 233.113,133.365 229.540 C 130.438 225.517,130.509 225.685,131.354 224.751 C 131.691 224.379,131.883 224.074,131.781 224.074 C 131.680 224.074,131.320 224.379,130.983 224.751 M196.126 225.227 C 169.821 229.059,163.227 263.959,187.037 273.334 C 189.569 274.331,189.433 274.108,188.488 275.710 C 187.271 277.772,187.891 277.717,190.261 275.550 C 197.937 268.535,206.667 264.849,217.132 264.203 L 220.926 263.969 222.332 260.890 C 230.973 241.969,216.489 222.260,196.126 225.227 M203.110 227.421 C 218.890 229.702,226.081 244.379,218.845 259.537 L 217.386 262.593 212.601 262.593 L 207.816 262.593 208.316 261.389 C 212.308 251.789,203.198 239.538,194.710 243.092 C 187.238 246.220,187.589 261.993,195.235 266.643 L 196.239 267.253 193.649 269.600 L 191.060 271.948 187.857 270.361 C 181.918 267.417,177.378 261.804,175.746 255.385 C 171.983 240.579,187.120 225.110,203.110 227.421 M243.186 272.399 C 243.906 272.700,246.314 274.042,248.537 275.381 C 264.113 284.767,280.515 287.466,297.593 283.455 C 299.833 282.929,302.250 282.425,302.963 282.335 C 304.036 282.199,317.507 284.427,319.220 285.023 C 320.147 285.346,312.977 290.543,306.830 294.004 C 302.695 296.333,298.469 298.184,293.168 299.989 L 289.114 301.370 286.131 299.434 C 274.695 292.013,256.064 286.989,237.037 286.196 L 235.000 286.111 235.023 281.852 C 235.068 273.821,238.122 270.284,243.186 272.399 M242.037 287.416 C 259.280 288.855,275.837 293.655,285.556 300.033 L 287.963 301.613 286.296 302.106 C 264.524 308.555,242.988 303.652,236.553 290.784 C 234.444 286.566,234.135 286.756,242.037 287.416 " stroke="none" fill="#141415" fill-rule="evenodd"></path><path id="path3" d="M236.759 44.329 C 237.116 44.423,237.699 44.423,238.056 44.329 C 238.412 44.236,238.120 44.160,237.407 44.160 C 236.694 44.160,236.403 44.236,236.759 44.329 M206.667 50.926 C 207.358 51.639,208.006 52.222,208.108 52.222 C 208.210 52.222,207.728 51.639,207.037 50.926 C 206.346 50.213,205.697 49.630,205.595 49.630 C 205.494 49.630,205.976 50.213,206.667 50.926 M219.357 66.192 C 219.920 66.277,220.753 66.275,221.209 66.187 C 221.664 66.099,221.204 66.029,220.185 66.032 C 219.167 66.035,218.794 66.107,219.357 66.192 M353.615 177.299 C 354.076 177.388,354.743 177.384,355.097 177.292 C 355.451 177.199,355.074 177.126,354.259 177.130 C 353.444 177.135,353.155 177.210,353.615 177.299 M165.723 181.944 L 164.259 183.519 165.833 182.054 C 167.297 180.693,167.578 180.370,167.297 180.370 C 167.237 180.370,166.529 181.079,165.723 181.944 M134.606 184.907 L 133.519 186.111 134.722 185.023 C 135.844 184.009,136.096 183.704,135.810 183.704 C 135.746 183.704,135.205 184.245,134.606 184.907 M116.667 184.815 C 116.667 185.019,116.867 185.144,117.113 185.093 C 117.358 185.042,117.566 185.194,117.576 185.432 C 117.585 185.670,117.705 185.977,117.843 186.114 C 118.172 186.443,118.024 185.501,117.653 184.907 C 117.307 184.354,116.667 184.293,116.667 184.815 M141.296 185.185 C 141.170 185.389,141.166 185.556,141.287 185.556 C 141.409 185.556,141.335 185.879,141.123 186.274 C 140.912 186.669,140.878 187.078,141.048 187.183 C 141.219 187.289,141.372 187.174,141.390 186.928 C 141.408 186.682,141.509 186.106,141.616 185.648 C 141.820 184.769,141.679 184.565,141.296 185.185 M187.401 190.648 L 183.519 194.630 187.500 190.747 C 191.198 187.141,191.650 186.667,191.382 186.667 C 191.328 186.667,189.536 188.458,187.401 190.648 M138.215 189.364 C 137.952 189.681,137.942 190.021,138.185 190.383 C 138.478 190.819,138.528 190.780,138.441 190.185 C 138.375 189.728,138.521 189.483,138.824 189.546 C 139.094 189.602,139.209 189.477,139.080 189.268 C 138.778 188.780,138.691 188.790,138.215 189.364 M148.275 193.239 C 147.631 194.101,147.428 194.182,146.936 193.773 C 146.446 193.367,146.370 193.391,146.450 193.932 C 146.666 195.408,148.965 194.535,149.083 192.932 C 149.149 192.040,149.178 192.029,148.275 193.239 M122.205 193.910 C 121.945 194.222,121.518 194.396,121.256 194.295 C 120.956 194.180,120.855 194.312,120.984 194.648 C 121.098 194.944,121.397 195.185,121.649 195.185 C 122.300 195.185,123.456 193.823,123.029 193.559 C 122.835 193.440,122.464 193.597,122.205 193.910 M161.505 193.860 C 161.251 194.167,161.217 194.466,161.422 194.593 C 161.612 194.710,161.962 194.573,162.198 194.288 C 162.453 193.982,162.487 193.682,162.282 193.556 C 162.092 193.438,161.742 193.575,161.505 193.860 M145.512 196.944 C 145.488 197.097,145.493 197.365,145.525 197.539 C 145.556 197.713,145.367 198.115,145.106 198.432 C 144.680 198.947,144.718 198.953,145.463 198.489 C 146.344 197.941,146.561 197.407,145.904 197.407 C 145.688 197.407,145.615 197.241,145.741 197.037 C 145.867 196.833,145.876 196.667,145.763 196.667 C 145.649 196.667,145.536 196.792,145.512 196.944 M72.875 197.299 C 73.335 197.388,74.002 197.384,74.356 197.292 C 74.710 197.199,74.333 197.126,73.519 197.130 C 72.704 197.135,72.414 197.210,72.875 197.299 M125.882 200.278 C 125.858 200.431,125.858 200.681,125.882 200.833 C 125.906 200.986,125.759 201.111,125.556 201.111 C 125.352 201.111,125.185 201.311,125.185 201.556 C 125.185 201.899,125.285 201.900,125.626 201.559 C 126.055 201.130,126.383 200.000,126.078 200.000 C 125.995 200.000,125.906 200.125,125.882 200.278 M115.428 201.047 C 114.919 201.610,114.906 201.728,115.353 201.728 C 115.650 201.728,115.816 201.604,115.722 201.451 C 115.628 201.299,115.760 201.100,116.016 201.008 C 116.272 200.917,116.383 200.735,116.263 200.604 C 116.143 200.473,115.767 200.672,115.428 201.047 M113.457 201.649 C 113.457 201.946,113.581 202.113,113.734 202.018 C 113.886 201.924,114.086 202.057,114.177 202.313 C 114.268 202.568,114.450 202.680,114.581 202.559 C 114.712 202.439,114.513 202.064,114.138 201.725 C 113.575 201.215,113.457 201.202,113.457 201.649 M86.281 203.796 C 87.189 204.764,87.981 205.556,88.040 205.556 C 88.318 205.556,88.024 205.223,86.389 203.688 L 84.630 202.037 86.281 203.796 M146.264 209.113 C 145.730 209.756,145.535 211.055,145.936 211.302 C 146.078 211.390,146.166 211.091,146.131 210.638 C 146.037 209.407,146.599 208.826,147.446 209.280 C 147.832 209.487,148.148 209.572,148.148 209.471 C 148.148 208.856,146.705 208.582,146.264 209.113 M157.935 210.252 C 158.065 211.142,159.516 211.119,160.276 210.216 C 160.915 209.457,160.913 209.455,160.164 210.085 C 159.485 210.657,159.318 210.667,158.623 210.180 C 157.923 209.689,157.853 209.697,157.935 210.252 M129.662 213.480 C 129.313 213.900,129.321 213.999,129.702 213.944 C 130.213 213.869,130.543 213.383,130.269 213.108 C 130.179 213.019,129.906 213.186,129.662 213.480 M125.724 215.165 C 125.733 215.841,125.900 216.141,126.202 216.025 C 126.767 215.808,126.820 215.185,126.274 215.185 C 126.059 215.185,125.978 215.030,126.095 214.840 C 126.212 214.651,126.174 214.412,126.009 214.311 C 125.845 214.209,125.716 214.593,125.724 215.165 M138.272 216.528 C 138.272 216.868,138.458 216.897,138.951 216.634 C 139.324 216.434,139.650 216.359,139.676 216.468 C 139.701 216.577,139.743 216.819,139.769 217.006 C 139.794 217.193,139.927 217.458,140.065 217.596 C 140.202 217.733,140.277 217.585,140.230 217.267 C 140.072 216.188,138.272 215.509,138.272 216.528 M153.316 216.389 C 153.275 216.542,153.220 216.859,153.194 217.094 C 153.169 217.330,152.898 217.562,152.593 217.611 C 152.287 217.660,151.795 217.759,151.498 217.831 C 151.202 217.904,150.952 217.769,150.943 217.531 C 150.934 217.293,150.813 216.986,150.676 216.849 C 150.538 216.711,150.464 216.859,150.511 217.178 C 150.654 218.150,152.222 218.989,152.222 218.094 C 152.222 217.896,152.370 217.825,152.551 217.937 C 153.009 218.220,153.815 217.165,153.583 216.587 C 153.478 216.325,153.358 216.236,153.316 216.389 M137.160 217.951 C 137.160 218.263,137.309 218.519,137.491 218.519 C 137.673 218.519,137.726 218.674,137.608 218.863 C 137.491 219.053,137.556 219.307,137.752 219.429 C 137.955 219.554,138.042 219.297,137.952 218.833 C 137.760 217.833,137.160 217.165,137.160 217.951 M337.905 223.148 C 337.906 224.778,337.971 225.398,338.049 224.527 C 338.128 223.656,338.127 222.323,338.047 221.564 C 337.967 220.806,337.903 221.519,337.905 223.148 M130.959 224.408 C 130.480 224.937,130.434 225.181,130.774 225.391 C 131.045 225.558,131.130 225.516,130.987 225.284 C 130.704 224.826,131.437 224.204,132.222 224.237 C 132.528 224.249,132.778 224.454,132.778 224.691 C 132.778 224.929,132.890 225.236,133.028 225.373 C 133.357 225.703,133.209 224.760,132.838 224.167 C 132.423 223.502,131.694 223.596,130.959 224.408 M144.921 224.537 C 145.013 224.792,144.819 225.333,144.489 225.741 C 143.897 226.471,143.900 226.472,144.697 225.799 C 145.142 225.423,145.416 224.881,145.306 224.595 C 145.059 223.951,144.688 223.896,144.921 224.537 M198.987 227.303 C 199.550 227.388,200.383 227.386,200.838 227.298 C 201.294 227.210,200.833 227.140,199.815 227.143 C 198.796 227.146,198.424 227.218,198.987 227.303 M96.390 229.444 C 96.394 230.259,96.470 230.549,96.558 230.088 C 96.647 229.628,96.643 228.961,96.551 228.607 C 96.458 228.253,96.386 228.630,96.390 229.444 M139.815 230.369 C 139.555 230.790,139.524 230.770,140.664 230.896 C 141.131 230.948,141.616 230.809,141.742 230.587 C 141.868 230.366,141.839 230.304,141.677 230.450 C 141.516 230.596,141.083 230.553,140.715 230.356 C 140.277 230.122,139.965 230.127,139.815 230.369 M96.390 233.889 C 96.394 234.704,96.470 234.993,96.558 234.533 C 96.647 234.072,96.643 233.405,96.551 233.051 C 96.458 232.697,96.386 233.074,96.390 233.889 M197.130 242.478 C 197.486 242.571,198.069 242.571,198.426 242.478 C 198.782 242.384,198.491 242.308,197.778 242.308 C 197.065 242.308,196.773 242.384,197.130 242.478 M21.953 245.926 C 21.953 246.843,22.025 247.218,22.113 246.759 C 22.202 246.301,22.202 245.551,22.113 245.093 C 22.025 244.634,21.953 245.009,21.953 245.926 M110.463 250.626 C 110.819 250.719,111.403 250.719,111.759 250.626 C 112.116 250.533,111.824 250.456,111.111 250.456 C 110.398 250.456,110.106 250.533,110.463 250.626 M188.995 253.889 C 188.998 254.907,189.070 255.280,189.155 254.717 C 189.240 254.154,189.238 253.321,189.150 252.865 C 189.062 252.410,188.992 252.870,188.995 253.889 M211.950 262.488 C 212.513 262.573,213.346 262.571,213.801 262.483 C 214.257 262.395,213.796 262.325,212.778 262.328 C 211.759 262.331,211.387 262.403,211.950 262.488 M323.333 265.370 C 322.434 266.287,321.781 267.037,321.883 267.037 C 321.985 267.037,322.804 266.287,323.704 265.370 C 324.603 264.454,325.256 263.704,325.154 263.704 C 325.052 263.704,324.233 264.454,323.333 265.370 M325.536 268.056 L 324.259 269.444 325.648 268.168 C 326.941 266.980,327.207 266.667,326.925 266.667 C 326.863 266.667,326.238 267.292,325.536 268.056 M62.130 267.298 C 62.588 267.387,63.338 267.387,63.796 267.298 C 64.255 267.210,63.880 267.138,62.963 267.138 C 62.046 267.138,61.671 267.210,62.130 267.298 M66.944 267.298 C 67.403 267.387,68.153 267.387,68.611 267.298 C 69.069 267.210,68.694 267.138,67.778 267.138 C 66.861 267.138,66.486 267.210,66.944 267.298 M177.778 267.153 C 177.778 267.217,178.319 267.758,178.981 268.357 L 180.185 269.444 179.097 268.241 C 178.083 267.119,177.778 266.867,177.778 267.153 M237.855 272.769 C 235.848 274.458,235.050 277.018,235.023 281.852 L 235.000 286.111 237.037 286.196 C 256.064 286.989,274.695 292.013,286.131 299.434 L 289.114 301.370 293.168 299.989 C 298.469 298.184,302.695 296.333,306.830 294.004 C 312.977 290.543,320.147 285.346,319.220 285.023 C 317.507 284.427,304.036 282.199,302.963 282.335 C 302.250 282.425,299.833 282.929,297.593 283.455 C 280.515 287.466,264.113 284.767,248.537 275.381 C 242.048 271.472,239.994 270.970,237.855 272.769 M235.185 287.543 C 235.185 290.730,241.517 298.059,246.500 300.639 C 256.057 305.587,272.498 306.193,286.296 302.106 L 287.963 301.613 285.556 300.033 C 275.837 293.655,259.280 288.855,242.037 287.416 C 236.052 286.916,235.185 286.932,235.185 287.543 M262.685 308.033 C 263.042 308.126,263.625 308.126,263.981 308.033 C 264.338 307.940,264.046 307.864,263.333 307.864 C 262.620 307.864,262.329 307.940,262.685 308.033 M268.241 308.033 C 268.597 308.126,269.181 308.126,269.537 308.033 C 269.894 307.940,269.602 307.864,268.889 307.864 C 268.176 307.864,267.884 307.940,268.241 308.033 M302.769 312.315 L 299.815 315.370 302.870 312.416 C 305.708 309.672,306.095 309.259,305.825 309.259 C 305.769 309.259,304.394 310.634,302.769 312.315 " stroke="none" fill="#7c233c" fill-rule="evenodd"></path><path id="path4" d="M236.759 42.848 C 237.116 42.941,237.699 42.941,238.056 42.848 C 238.412 42.755,238.120 42.679,237.407 42.679 C 236.694 42.679,236.403 42.755,236.759 42.848 M208.549 162.315 C 208.634 162.366,209.204 162.824,209.815 163.333 L 210.926 164.259 210.028 163.241 C 209.534 162.681,208.965 162.222,208.763 162.222 C 208.560 162.222,208.465 162.264,208.549 162.315 M220.162 169.722 L 219.074 170.926 220.278 169.838 C 220.940 169.240,221.481 168.698,221.481 168.634 C 221.481 168.348,221.176 168.600,220.162 169.722 M208.680 170.093 L 207.593 171.296 208.796 170.208 C 209.458 169.610,210.000 169.069,210.000 169.005 C 210.000 168.719,209.694 168.971,208.680 170.093 M203.501 174.907 L 202.037 176.481 203.611 175.017 C 205.075 173.656,205.355 173.333,205.075 173.333 C 205.015 173.333,204.306 174.042,203.501 174.907 M212.384 176.759 L 211.296 177.963 212.500 176.875 C 213.162 176.277,213.704 175.735,213.704 175.671 C 213.704 175.385,213.398 175.637,212.384 176.759 M139.803 179.352 L 137.593 181.667 139.907 179.456 C 142.058 177.403,142.392 177.037,142.118 177.037 C 142.061 177.037,141.019 178.079,139.803 179.352 M194.807 183.241 L 191.296 186.852 194.907 183.341 C 196.894 181.409,198.519 179.784,198.519 179.730 C 198.519 179.461,198.069 179.887,194.807 183.241 M207.940 180.833 L 206.852 182.037 208.056 180.949 C 208.718 180.351,209.259 179.809,209.259 179.746 C 209.259 179.459,208.954 179.711,207.940 180.833 M136.521 186.620 C 131.663 191.490,130.308 193.055,130.457 193.625 C 130.751 194.750,139.641 207.037,140.161 207.037 C 140.699 207.037,145.093 202.741,149.856 197.560 L 153.230 193.889 148.627 187.222 C 146.095 183.556,143.744 180.509,143.401 180.453 C 143.011 180.388,140.436 182.697,136.521 186.620 M110.926 186.916 C 107.667 190.295,104.867 193.286,104.705 193.565 C 104.436 194.025,112.509 205.931,113.277 206.208 C 113.426 206.262,114.981 204.752,116.735 202.852 C 119.518 199.838,119.799 199.416,118.943 199.530 C 117.976 199.660,112.848 193.092,112.310 191.036 C 112.091 190.200,112.838 189.259,113.720 189.259 C 114.457 189.259,120.370 197.280,120.370 198.280 C 120.370 198.601,121.713 197.439,123.353 195.697 L 126.336 192.530 125.458 191.358 C 124.974 190.713,123.121 188.060,121.339 185.463 C 119.305 182.500,117.866 180.747,117.475 180.758 C 117.132 180.767,114.185 183.538,110.926 186.916 M353.241 181.379 C 353.903 181.461,354.986 181.461,355.648 181.379 C 356.310 181.297,355.769 181.230,354.444 181.230 C 353.120 181.230,352.579 181.297,353.241 181.379 M163.796 187.761 C 160.282 191.197,157.407 194.209,157.407 194.455 C 157.407 195.164,166.780 208.148,167.292 208.148 C 167.729 208.148,179.883 197.011,180.454 196.088 C 180.765 195.585,171.227 181.472,170.594 181.498 C 170.369 181.507,167.310 184.326,163.796 187.761 M161.481 186.111 C 159.964 187.639,158.806 188.889,158.907 188.889 C 159.009 188.889,160.334 187.639,161.852 186.111 C 163.369 184.583,164.528 183.333,164.426 183.333 C 164.324 183.333,162.999 184.583,161.481 186.111 M203.495 184.907 L 202.407 186.111 203.611 185.023 C 204.273 184.425,204.815 183.883,204.815 183.820 C 204.815 183.533,204.509 183.785,203.495 184.907 M120.326 188.570 C 123.520 192.951,123.756 193.577,122.606 194.617 C 121.531 195.591,121.075 195.237,117.801 190.889 C 114.396 186.366,114.528 186.714,115.723 185.424 C 117.017 184.028,117.011 184.023,120.326 188.570 M146.283 188.426 C 149.430 192.673,149.600 193.084,148.646 194.138 C 147.554 195.345,146.889 194.881,143.790 190.745 C 140.428 186.259,140.505 186.428,141.317 185.268 C 142.394 183.731,143.170 184.225,146.283 188.426 M141.802 185.703 C 141.361 186.669,146.604 194.280,147.503 193.980 C 148.907 193.512,148.622 192.645,145.781 188.747 C 142.720 184.547,142.430 184.325,141.802 185.703 M116.002 185.941 C 115.450 186.826,115.348 186.631,118.635 191.019 C 121.420 194.736,121.452 194.760,122.340 193.778 C 122.905 193.154,122.764 192.865,120.082 189.164 C 117.055 184.984,116.750 184.743,116.002 185.941 M173.426 189.589 C 176.498 193.886,176.626 194.207,175.683 195.249 C 174.442 196.620,174.055 196.262,168.572 188.672 C 167.714 187.484,167.711 187.450,168.387 186.522 C 169.621 184.829,170.331 185.261,173.426 189.589 M131.469 188.056 L 129.444 190.185 131.574 188.161 C 133.553 186.280,133.873 185.926,133.598 185.926 C 133.541 185.926,132.582 186.884,131.469 188.056 M169.124 186.612 C 168.277 187.547,168.220 187.419,171.291 191.474 C 174.536 195.759,174.524 195.750,175.360 194.827 C 175.979 194.142,175.897 193.968,173.157 190.209 C 169.860 185.685,169.917 185.736,169.124 186.612 M198.680 189.352 L 197.593 190.556 198.796 189.468 C 199.458 188.869,200.000 188.328,200.000 188.264 C 200.000 187.978,199.694 188.230,198.680 189.352 M142.611 192.297 C 146.721 198.160,146.488 197.693,145.728 198.532 C 144.513 199.875,143.877 199.430,140.942 195.184 C 137.681 190.468,137.540 190.177,138.152 189.440 C 139.199 188.178,140.151 188.788,142.611 192.297 M138.981 189.505 C 138.134 189.847,138.498 190.686,141.161 194.524 C 144.511 199.351,144.325 199.167,145.080 198.412 C 145.673 197.819,145.597 197.620,143.782 195.008 C 142.722 193.483,141.395 191.572,140.834 190.761 C 139.772 189.225,139.735 189.200,138.981 189.505 M112.976 190.169 C 112.567 190.662,117.804 199.207,118.540 199.248 C 120.317 199.346,119.999 198.247,117.015 193.970 C 113.850 189.433,113.702 189.294,112.976 190.169 M170.313 194.268 C 173.593 198.902,173.742 199.302,172.510 200.164 C 171.295 201.015,171.400 201.108,167.942 196.091 C 164.843 191.594,164.758 191.417,165.389 190.720 C 166.572 189.413,167.194 189.861,170.313 194.268 M165.927 190.925 C 165.454 191.494,166.074 192.559,170.718 199.155 C 171.383 200.099,171.957 200.211,172.540 199.508 C 172.854 199.130,172.263 198.039,169.981 194.786 C 166.754 190.183,166.636 190.071,165.927 190.925 M367.871 192.778 C 367.875 193.593,367.951 193.882,368.040 193.422 C 368.128 192.961,368.125 192.294,368.032 191.940 C 367.940 191.586,367.867 191.963,367.871 192.778 M139.134 196.111 C 141.881 199.876,142.199 200.616,141.407 201.407 C 140.310 202.505,139.415 201.891,136.791 198.241 C 133.486 193.644,133.637 193.963,134.310 193.002 C 135.320 191.561,136.252 192.162,139.134 196.111 M113.288 196.385 C 116.598 200.984,116.544 200.852,115.511 201.814 C 114.189 203.045,114.166 203.029,110.963 198.583 C 107.959 194.415,107.884 194.239,108.716 193.320 C 109.852 192.064,110.482 192.486,113.288 196.385 M134.889 193.037 C 134.209 193.716,134.263 193.831,137.065 197.688 C 139.991 201.718,139.952 201.684,140.894 200.995 C 141.527 200.532,141.384 200.239,138.724 196.546 C 135.765 192.437,135.621 192.305,134.889 193.037 M193.501 194.167 L 192.037 195.741 193.611 194.277 C 195.075 192.915,195.355 192.593,195.075 192.593 C 195.015 192.593,194.306 193.301,193.501 194.167 M109.250 193.529 C 108.594 194.320,113.250 201.852,114.395 201.852 C 115.655 201.852,115.611 200.671,114.281 198.792 C 113.526 197.725,112.295 195.979,111.547 194.912 C 110.048 192.777,109.933 192.707,109.250 193.529 M166.424 197.441 C 169.507 201.779,169.689 202.987,167.257 202.952 C 165.493 202.927,160.477 194.856,161.556 193.778 C 162.649 192.685,163.500 193.325,166.424 197.441 M162.094 194.382 C 161.473 195.068,166.187 202.531,167.269 202.575 C 168.890 202.642,168.562 201.445,165.964 197.805 C 162.915 193.536,162.884 193.508,162.094 194.382 M121.008 201.990 C 117.602 205.546,114.820 208.594,114.827 208.765 C 114.851 209.343,124.256 221.985,124.792 222.158 C 125.287 222.318,137.778 209.935,137.778 209.283 C 137.778 208.497,128.555 195.729,127.918 195.633 C 127.404 195.556,125.442 197.361,121.008 201.990 M148.179 203.127 C 144.188 207.142,141.831 209.783,141.954 210.102 C 142.459 211.418,151.306 223.333,151.778 223.333 C 152.502 223.333,164.815 211.539,164.815 210.846 C 164.815 210.103,155.522 196.667,155.008 196.667 C 154.785 196.667,151.712 199.574,148.179 203.127 M187.946 199.352 L 186.481 200.926 188.056 199.462 C 189.519 198.100,189.800 197.778,189.520 197.778 C 189.459 197.778,188.751 198.486,187.946 199.352 M130.709 203.335 C 132.356 205.577,133.704 207.629,133.704 207.895 C 133.704 208.466,132.348 210.000,131.843 210.000 C 131.191 210.000,125.106 201.541,125.394 201.036 C 126.850 198.485,127.285 198.673,130.709 203.335 M126.299 200.736 C 125.910 201.463,131.010 209.259,131.874 209.259 C 133.638 209.259,133.274 207.852,130.526 204.052 C 127.565 199.954,126.968 199.486,126.299 200.736 M63.866 201.574 L 62.778 202.778 63.981 201.690 C 65.104 200.676,65.355 200.370,65.069 200.370 C 65.006 200.370,64.464 200.912,63.866 201.574 M157.870 204.774 C 160.943 209.071,161.071 209.392,160.128 210.434 C 159.035 211.641,158.363 211.187,155.507 207.315 C 151.934 202.470,152.069 202.755,152.851 201.682 C 154.064 200.015,154.786 200.460,157.870 204.774 M153.568 201.797 C 152.721 202.733,152.663 202.602,155.754 206.685 C 158.557 210.386,159.157 210.831,159.989 209.829 C 160.358 209.384,159.929 208.589,157.596 205.387 C 154.305 200.870,154.361 200.921,153.568 201.797 M182.020 204.907 L 180.556 206.481 182.130 205.017 C 183.594 203.656,183.874 203.333,183.594 203.333 C 183.533 203.333,182.825 204.042,182.020 204.907 M127.680 208.170 C 130.875 212.609,131.202 213.431,130.024 214.061 C 128.712 214.764,128.351 214.459,125.463 210.210 C 122.458 205.788,122.176 205.027,123.241 204.220 C 124.231 203.470,124.411 203.630,127.680 208.170 M123.362 204.965 C 122.989 205.414,123.409 206.233,125.736 209.599 C 128.970 214.276,128.968 214.274,129.725 213.417 C 130.242 212.832,130.045 212.431,127.413 208.719 C 124.333 204.376,124.061 204.123,123.362 204.965 M154.617 209.289 C 158.103 214.264,158.415 215.926,155.863 215.926 C 155.648 215.926,150.717 209.106,149.486 207.106 C 149.115 206.504,150.232 205.185,151.114 205.185 C 151.494 205.185,152.878 206.806,154.617 209.289 M150.372 206.110 C 149.847 206.741,155.210 215.185,156.136 215.185 C 157.686 215.185,157.334 214.120,154.412 209.972 C 151.154 205.345,151.071 205.267,150.372 206.110 M359.259 207.593 C 358.360 208.509,357.707 209.259,357.809 209.259 C 357.911 209.259,358.730 208.509,359.630 207.593 C 360.529 206.676,361.182 205.926,361.080 205.926 C 360.978 205.926,360.159 206.676,359.259 207.593 M123.553 210.989 C 126.967 215.770,126.837 215.495,126.087 216.323 C 124.906 217.628,124.196 217.194,121.464 213.494 C 118.331 209.252,118.246 209.063,119.087 208.134 C 120.245 206.854,120.899 207.273,123.553 210.989 M119.539 208.417 C 118.989 209.028,119.125 209.316,121.486 212.549 C 124.688 216.933,124.649 216.895,125.355 216.309 C 126.167 215.635,126.191 215.690,123.317 211.640 C 120.401 207.531,120.365 207.500,119.539 208.417 M150.315 211.944 C 154.113 217.075,154.055 216.949,153.015 217.802 C 151.635 218.933,151.362 218.747,148.376 214.629 C 145.334 210.434,145.245 210.216,146.169 209.196 C 147.194 208.063,147.681 208.386,150.315 211.944 M176.276 210.278 L 175.000 211.667 176.389 210.390 C 177.682 209.202,177.948 208.889,177.665 208.889 C 177.603 208.889,176.978 209.514,176.276 210.278 M146.543 209.506 C 145.933 210.116,147.671 213.102,151.326 217.719 C 151.532 217.980,152.963 217.342,152.963 216.989 C 152.963 216.342,147.727 209.259,147.249 209.259 C 146.997 209.259,146.679 209.370,146.543 209.506 M133.038 218.278 C 129.534 221.819,126.667 224.916,126.667 225.159 C 126.667 225.828,134.512 236.667,134.996 236.667 C 135.910 236.667,149.630 226.664,149.630 225.998 C 149.630 225.536,140.219 212.110,139.796 211.969 C 139.584 211.898,136.543 214.737,133.038 218.278 M171.273 214.907 L 170.185 216.111 171.389 215.023 C 172.511 214.009,172.763 213.704,172.477 213.704 C 172.413 213.704,171.871 214.245,171.273 214.907 M142.354 219.777 C 145.720 224.365,145.839 224.628,144.988 225.569 C 143.783 226.901,143.104 226.462,140.008 222.350 C 136.726 217.991,136.771 218.098,137.685 216.841 C 138.768 215.351,139.396 215.746,142.354 219.777 M337.493 217.037 C 337.493 217.750,337.570 218.042,337.663 217.685 C 337.756 217.329,337.756 216.745,337.663 216.389 C 337.570 216.032,337.493 216.324,337.493 217.037 M341.582 217.778 C 341.582 218.694,341.655 219.069,341.743 218.611 C 341.831 218.153,341.831 217.403,341.743 216.944 C 341.655 216.486,341.582 216.861,341.582 217.778 M138.152 217.218 C 137.531 217.966,137.717 218.334,140.769 222.395 C 143.557 226.103,143.660 226.192,144.370 225.481 C 145.125 224.727,144.901 224.217,142.130 220.399 C 139.379 216.608,138.945 216.262,138.152 217.218 M62.714 220.926 C 62.716 222.352,62.783 222.890,62.863 222.121 C 62.943 221.353,62.942 220.186,62.860 219.529 C 62.778 218.871,62.712 219.500,62.714 220.926 M139.509 224.816 C 142.871 229.490,142.859 229.462,141.980 230.434 C 140.844 231.688,140.221 231.206,137.115 226.670 C 133.727 221.721,133.840 221.984,134.699 221.034 C 135.724 219.902,136.300 220.355,139.509 224.816 M134.953 221.656 C 134.690 222.340,140.030 230.139,140.875 230.305 C 142.350 230.596,141.833 229.138,139.062 225.191 C 136.304 221.264,135.401 220.487,134.953 221.656 M135.326 227.614 C 138.266 231.689,138.631 232.678,137.432 233.320 C 136.143 234.010,135.771 233.727,133.183 230.087 C 130.243 225.953,130.035 225.429,130.937 224.432 C 132.006 223.251,132.365 223.511,135.326 227.614 M131.162 225.081 C 130.776 225.771,130.824 225.856,134.335 230.649 C 136.134 233.104,136.367 233.296,137.045 232.872 C 137.976 232.290,137.983 232.306,134.939 228.024 C 132.359 224.396,131.793 223.954,131.162 225.081 M337.501 229.074 C 337.505 229.889,337.581 230.179,337.669 229.718 C 337.758 229.257,337.755 228.591,337.662 228.236 C 337.569 227.882,337.497 228.259,337.501 229.074 M93.434 235.556 C 93.434 236.472,93.506 236.847,93.595 236.389 C 93.683 235.931,93.683 235.181,93.595 234.722 C 93.506 234.264,93.434 234.639,93.434 235.556 M93.434 241.852 C 93.434 242.769,93.506 243.144,93.595 242.685 C 93.683 242.227,93.683 241.477,93.595 241.019 C 93.506 240.560,93.434 240.935,93.434 241.852 M224.908 250.185 C 224.912 251.000,224.988 251.290,225.077 250.829 C 225.165 250.368,225.162 249.702,225.069 249.348 C 224.977 248.993,224.904 249.370,224.908 250.185 M107.685 250.632 C 108.144 250.720,108.894 250.720,109.352 250.632 C 109.810 250.543,109.435 250.471,108.519 250.471 C 107.602 250.471,107.227 250.543,107.685 250.632 M112.875 250.632 C 113.335 250.721,114.002 250.718,114.356 250.625 C 114.710 250.532,114.333 250.460,113.519 250.464 C 112.704 250.468,112.414 250.544,112.875 250.632 M218.062 264.342 C 218.728 264.425,219.728 264.423,220.284 264.339 C 220.841 264.254,220.296 264.187,219.074 264.189 C 217.852 264.191,217.397 264.260,218.062 264.342 M58.241 266.922 C 58.597 267.015,59.181 267.015,59.537 266.922 C 59.894 266.829,59.602 266.753,58.889 266.753 C 58.176 266.753,57.884 266.829,58.241 266.922 M71.764 266.929 C 72.224 267.017,72.891 267.014,73.245 266.921 C 73.599 266.828,73.222 266.756,72.407 266.760 C 71.593 266.764,71.303 266.840,71.764 266.929 M239.537 268.410 C 239.995 268.498,240.745 268.498,241.204 268.410 C 241.662 268.321,241.287 268.249,240.370 268.249 C 239.454 268.249,239.079 268.321,239.537 268.410 M192.014 270.833 L 190.926 272.037 192.130 270.949 C 192.792 270.351,193.333 269.809,193.333 269.746 C 193.333 269.459,193.028 269.711,192.014 270.833 M189.421 276.389 L 188.333 277.593 189.537 276.505 C 190.659 275.491,190.911 275.185,190.625 275.185 C 190.561 275.185,190.019 275.727,189.421 276.389 M231.233 282.037 C 231.234 283.463,231.301 284.001,231.381 283.232 C 231.462 282.464,231.460 281.297,231.378 280.640 C 231.297 279.982,231.231 280.611,231.233 282.037 M280.663 281.756 C 281.944 281.829,283.944 281.828,285.107 281.755 C 286.270 281.681,285.222 281.622,282.778 281.623 C 280.333 281.624,279.382 281.684,280.663 281.756 M124.444 323.889 C 125.135 324.602,125.784 325.185,125.886 325.185 C 125.988 325.185,125.506 324.602,124.815 323.889 C 124.124 323.176,123.475 322.593,123.373 322.593 C 123.271 322.593,123.753 323.176,124.444 323.889 M120.355 330.463 C 121.890 332.098,122.222 332.392,122.222 332.114 C 122.222 332.055,121.431 331.263,120.463 330.355 L 118.704 328.704 120.355 330.463 " stroke="none" fill="#727bb0" fill-rule="evenodd"></path><path id="path5" d="M241.169 55.093 C 240.488 60.134,239.851 64.609,239.754 65.037 C 239.618 65.637,239.841 65.924,240.732 66.293 C 243.847 67.583,243.523 71.778,240.240 72.656 L 238.652 73.081 234.848 100.707 C 232.756 115.902,230.964 128.625,230.867 128.981 C 230.732 129.480,230.917 129.630,231.670 129.630 C 236.021 129.630,235.605 137.053,231.248 137.167 L 229.758 137.206 228.918 143.259 C 227.946 150.255,227.899 150.070,230.241 148.401 C 244.957 137.919,284.876 127.919,300.881 130.706 C 302.277 130.949,303.465 131.098,303.520 131.037 C 303.576 130.976,301.026 127.301,297.855 122.870 L 292.090 114.815 291.606 116.204 C 291.340 116.968,291.120 117.630,291.117 117.676 C 291.029 118.983,287.171 119.080,285.897 117.806 C 283.155 115.064,286.311 110.446,289.691 112.255 C 290.713 112.802,291.343 113.731,278.928 96.368 C 269.499 83.179,267.953 81.189,267.379 81.497 C 264.428 83.076,261.261 79.200,263.341 76.556 L 264.089 75.605 257.377 66.229 L 250.665 56.852 249.314 56.947 C 245.710 57.202,243.595 53.866,245.805 51.413 C 246.339 50.820,243.527 45.926,242.653 45.926 C 242.518 45.926,241.850 50.051,241.169 55.093 M251.818 88.686 C 253.894 89.760,254.159 92.630,252.316 94.080 C 249.492 96.301,245.573 92.625,247.632 89.685 C 248.668 88.206,250.188 87.843,251.818 88.686 M273.535 98.316 C 274.163 98.944,274.444 99.637,274.444 100.556 C 274.444 101.474,274.163 102.167,273.535 102.795 C 272.908 103.422,272.215 103.704,271.296 103.704 C 270.378 103.704,269.685 103.422,269.057 102.795 C 268.430 102.167,268.148 101.474,268.148 100.556 C 268.148 97.728,271.538 96.319,273.535 98.316 M248.335 110.524 C 250.048 112.237,249.922 114.657,248.046 116.058 C 244.458 118.737,240.144 113.873,243.305 110.712 C 244.738 109.279,247.006 109.194,248.335 110.524 M262.339 120.431 C 265.296 122.006,264.262 126.296,260.926 126.296 C 258.010 126.296,256.772 123.171,258.860 121.083 C 260.016 119.927,261.035 119.736,262.339 120.431 M288.122 124.986 C 289.293 125.592,289.630 126.222,289.630 127.808 L 289.630 128.889 287.037 128.889 C 285.611 128.889,284.319 128.894,284.167 128.900 C 282.867 128.954,284.059 125.392,285.519 124.856 C 286.846 124.369,286.937 124.373,288.122 124.986 " stroke="none" fill="#53dbfb" fill-rule="evenodd"></path><path id="path6" d="M195.697 45.522 C 191.654 47.987,194.667 52.802,203.997 58.786 L 205.957 60.043 207.886 58.471 C 208.947 57.606,209.969 56.768,210.157 56.607 C 210.349 56.444,209.092 54.998,207.308 53.329 C 205.552 51.686,203.271 49.281,202.239 47.984 C 199.740 44.844,197.927 44.162,195.697 45.522 M236.667 48.791 C 236.157 48.885,234.845 49.737,233.750 50.685 C 225.720 57.632,222.731 59.607,220.185 59.646 C 219.091 59.663,214.412 63.424,214.890 63.902 C 215.340 64.352,219.952 64.852,221.688 64.639 C 228.122 63.849,237.716 55.649,238.274 50.463 C 238.495 48.417,238.524 48.447,236.667 48.791 " stroke="none" fill="#e3b427" fill-rule="evenodd"></path><path id="path7" d="M245.841 51.390 C 243.671 53.861,245.839 57.483,249.119 56.868 C 250.703 56.571,250.714 56.623,248.375 53.427 C 246.547 50.930,246.370 50.787,245.841 51.390 M239.459 67.130 C 238.399 73.386,238.374 73.234,240.366 72.638 C 243.420 71.723,243.789 67.668,240.936 66.368 C 239.645 65.780,239.692 65.756,239.459 67.130 M263.367 76.523 C 261.241 79.226,264.840 83.487,267.477 81.389 C 267.990 80.981,267.826 80.605,266.100 78.232 L 264.142 75.538 263.367 76.523 M249.021 88.515 C 248.585 88.692,247.960 89.218,247.632 89.685 C 245.573 92.625,249.492 96.301,252.316 94.080 C 255.269 91.757,252.515 87.105,249.021 88.515 M269.057 98.316 C 268.430 98.944,268.148 99.637,268.148 100.556 C 268.148 101.474,268.430 102.167,269.057 102.795 C 271.055 104.792,274.444 103.383,274.444 100.556 C 274.444 97.728,271.055 96.319,269.057 98.316 M243.305 110.712 C 242.137 111.880,241.905 113.343,242.634 114.942 C 243.866 117.648,248.394 117.225,249.365 114.313 C 250.569 110.701,246.020 107.998,243.305 110.712 M285.913 112.919 C 283.002 115.830,286.298 120.248,289.966 118.351 C 290.892 117.872,291.330 117.172,291.972 115.142 C 292.080 114.800,291.715 114.055,291.121 113.404 C 290.549 112.777,290.132 112.214,290.194 112.151 C 290.257 112.088,289.566 111.988,288.660 111.929 C 287.250 111.836,286.852 111.980,285.913 112.919 M258.860 121.083 C 256.772 123.171,258.010 126.296,260.926 126.296 C 264.262 126.296,265.296 122.006,262.339 120.431 C 261.035 119.736,260.016 119.927,258.860 121.083 M285.519 124.856 C 284.059 125.392,282.867 128.954,284.167 128.900 C 284.319 128.894,285.611 128.889,287.037 128.889 L 289.630 128.889 289.630 127.808 C 289.630 126.222,289.293 125.592,288.122 124.986 C 286.937 124.373,286.846 124.369,285.519 124.856 M230.580 130.833 C 229.544 137.267,229.599 137.588,231.667 137.195 C 234.639 136.630,235.850 132.830,233.732 130.712 C 232.207 129.187,230.837 129.239,230.580 130.833 " stroke="none" fill="#349dc3" fill-rule="evenodd"></path><path id="path8" d="M232.132 44.827 C 226.611 45.757,224.814 46.852,212.380 56.864 C 200.181 66.686,197.250 67.530,190.687 63.111 C 186.062 59.998,183.106 59.980,182.296 63.060 C 181.572 65.815,182.603 67.494,186.287 69.560 C 196.330 75.193,203.578 72.383,220.000 56.491 C 226.481 50.219,232.408 47.037,237.612 47.037 C 238.461 47.037,238.889 46.406,238.889 45.155 C 238.889 44.365,235.776 44.214,232.132 44.827 M234.983 58.611 L 233.519 60.185 235.093 58.721 C 236.556 57.360,236.837 57.037,236.557 57.037 C 236.496 57.037,235.788 57.745,234.983 58.611 M194.907 73.959 C 195.264 74.052,195.847 74.052,196.204 73.959 C 196.560 73.866,196.269 73.790,195.556 73.790 C 194.843 73.790,194.551 73.866,194.907 73.959 M288.519 132.269 C 283.279 132.692,283.224 132.715,285.556 133.496 C 288.216 134.387,292.899 136.731,295.949 138.698 L 298.379 140.265 300.284 138.994 C 302.853 137.280,305.185 134.967,305.185 134.134 C 305.185 132.238,298.357 131.474,288.519 132.269 M305.347 137.870 L 304.259 139.074 305.463 137.986 C 306.125 137.388,306.667 136.846,306.667 136.783 C 306.667 136.496,306.361 136.748,305.347 137.870 M233.512 148.611 C 230.186 150.577,227.037 153.207,227.037 154.019 C 227.037 154.262,228.495 153.321,230.278 151.928 C 232.060 150.535,234.310 148.836,235.278 148.153 C 236.864 147.034,237.269 146.667,236.920 146.667 C 236.855 146.667,235.321 147.542,233.512 148.611 M313.704 153.148 C 314.395 153.861,315.043 154.444,315.145 154.444 C 315.247 154.444,314.765 153.861,314.074 153.148 C 313.383 152.435,312.734 151.852,312.632 151.852 C 312.531 151.852,313.013 152.435,313.704 153.148 M167.940 179.352 L 166.852 180.556 168.056 179.468 C 169.178 178.454,169.430 178.148,169.143 178.148 C 169.080 178.148,168.538 178.690,167.940 179.352 M136.458 182.685 L 135.370 183.889 136.574 182.801 C 137.236 182.203,137.778 181.661,137.778 181.597 C 137.778 181.311,137.472 181.563,136.458 182.685 M157.205 190.463 L 155.741 192.037 157.315 190.573 C 158.779 189.211,159.059 188.889,158.779 188.889 C 158.718 188.889,158.010 189.597,157.205 190.463 M371.212 192.593 C 371.212 193.509,371.284 193.884,371.372 193.426 C 371.461 192.968,371.461 192.218,371.372 191.759 C 371.284 191.301,371.212 191.676,371.212 192.593 M342.479 202.426 C 341.120 205.199,341.245 205.527,342.635 202.833 C 343.250 201.642,343.691 200.605,343.615 200.529 C 343.539 200.453,343.028 201.307,342.479 202.426 M344.955 205.463 C 342.129 208.757,341.320 209.857,343.097 207.987 C 345.014 205.969,347.522 202.963,347.288 202.963 C 347.184 202.963,346.135 204.088,344.955 205.463 M348.704 207.438 C 346.870 208.862,345.037 210.380,344.630 210.812 C 343.844 211.644,348.918 207.845,351.111 205.960 C 353.385 204.004,352.147 204.765,348.704 207.438 M56.397 220.000 C 56.397 220.917,56.469 221.292,56.558 220.833 C 56.646 220.375,56.646 219.625,56.558 219.167 C 56.469 218.708,56.397 219.083,56.397 220.000 M341.613 225.370 C 341.612 227.204,341.674 228.000,341.752 227.141 C 341.830 226.281,341.831 224.781,341.754 223.807 C 341.678 222.834,341.614 223.537,341.613 225.370 M96.382 227.037 C 96.382 227.750,96.458 228.042,96.552 227.685 C 96.645 227.329,96.645 226.745,96.552 226.389 C 96.458 226.032,96.382 226.324,96.382 227.037 M38.981 229.529 C 39.745 229.609,40.995 229.609,41.759 229.529 C 42.523 229.449,41.898 229.384,40.370 229.384 C 38.843 229.384,38.218 229.449,38.981 229.529 M96.382 236.296 C 96.382 237.009,96.458 237.301,96.552 236.944 C 96.645 236.588,96.645 236.005,96.552 235.648 C 96.458 235.292,96.382 235.583,96.382 236.296 M101.574 245.811 C 101.931 245.904,102.514 245.904,102.870 245.811 C 103.227 245.718,102.935 245.641,102.222 245.641 C 101.509 245.641,101.218 245.718,101.574 245.811 M175.304 250.741 C 175.304 252.065,175.371 252.606,175.453 251.944 C 175.535 251.282,175.535 250.199,175.453 249.537 C 175.371 248.875,175.304 249.417,175.304 250.741 M214.907 262.478 C 215.264 262.571,215.847 262.571,216.204 262.478 C 216.560 262.384,216.269 262.308,215.556 262.308 C 214.843 262.308,214.551 262.384,214.907 262.478 M180.741 264.931 C 180.741 264.994,181.282 265.536,181.944 266.134 L 183.148 267.222 182.060 266.019 C 181.046 264.896,180.741 264.645,180.741 264.931 M57.130 270.645 C 58.505 270.716,60.755 270.716,62.130 270.645 C 63.505 270.574,62.380 270.515,59.630 270.515 C 56.880 270.515,55.755 270.574,57.130 270.645 M237.407 297.894 C 237.407 297.957,237.949 298.499,238.611 299.097 L 239.815 300.185 238.727 298.981 C 237.713 297.859,237.407 297.608,237.407 297.894 M304.621 304.907 L 301.667 307.963 304.722 305.009 C 307.560 302.265,307.947 301.852,307.676 301.852 C 307.621 301.852,306.246 303.227,304.621 304.907 M194.167 353.218 C 194.523 353.311,195.106 353.311,195.463 353.218 C 195.819 353.125,195.528 353.049,194.815 353.049 C 194.102 353.049,193.810 353.125,194.167 353.218 M202.315 353.218 C 202.671 353.311,203.255 353.311,203.611 353.218 C 203.968 353.125,203.676 353.049,202.963 353.049 C 202.250 353.049,201.958 353.125,202.315 353.218 M191.774 361.386 C 193.055 361.458,195.055 361.458,196.218 361.384 C 197.382 361.311,196.333 361.252,193.889 361.253 C 191.444 361.253,190.493 361.313,191.774 361.386 " stroke="none" fill="#9fa2a3" fill-rule="evenodd"></path></g></svg>