<svg viewBox="0 0 751 112" fill="none" xmlns="http://www.w3.org/2000/svg">
<path d="M715.125 46.2674H731.55V53.8289C733.275 51.0588 735.45 48.9626 738 47.4652C740.55 45.9679 743.475 45.2192 746.85 45.2192C747.3 45.2192 747.75 45.2192 748.275 45.2192C748.8 45.2192 749.4 45.2941 750.075 45.369V61.016C747.9 59.9679 745.575 59.369 743.025 59.369C739.2 59.369 736.35 60.492 734.475 62.738C732.6 64.9839 731.625 68.2781 731.625 72.6203V92.5347H715.2V46.2674H715.125Z" fill="#1B0B5B"/>
<path d="M213.375 46.2674H229.875V92.6845H213.375V87.5187C209.85 91.9358 205.125 94.1069 199.125 94.1069C195.75 94.1069 192.6 93.508 189.825 92.2353C186.975 91.0374 184.5 89.2406 182.4 87.0695C180.3 84.8235 178.65 82.2032 177.45 79.2085C176.25 76.2139 175.65 72.9198 175.65 69.3262C175.65 66.0321 176.25 62.8877 177.375 59.893C178.5 56.8984 180.15 54.2781 182.175 52.1069C184.2 49.8609 186.675 48.139 189.525 46.7914C192.375 45.5187 195.525 44.8449 198.975 44.8449C204.75 44.8449 209.55 46.8663 213.375 50.9091V46.2674ZM192.75 69.3262C192.75 70.8235 193.05 72.246 193.575 73.5187C194.1 74.7914 194.85 75.9144 195.825 76.8877C196.725 77.8609 197.85 78.6096 199.2 79.1337C200.475 79.6577 201.9 79.9572 203.4 79.9572C204.825 79.9572 206.25 79.6577 207.525 79.1337C208.8 78.6096 209.925 77.8609 210.9 76.8877C211.8 75.9144 212.625 74.7914 213.15 73.5187C213.75 72.246 213.975 70.8984 213.975 69.4759C213.975 68.0535 213.675 66.631 213.15 65.3583C212.55 64.0855 211.8 62.9626 210.9 61.9893C210 61.016 208.875 60.2674 207.525 59.7433C206.25 59.2192 204.825 58.9198 203.4 58.9198C201.9 58.9198 200.475 59.2192 199.2 59.7433C197.925 60.2674 196.8 61.016 195.825 61.9893C194.925 62.9626 194.175 64.0855 193.575 65.2834C192.975 66.5561 192.75 67.9037 192.75 69.3262Z" fill="#1B0B5B"/>
<path d="M237.45 46.2674H253.875V51.9572C258.375 47.6898 263.325 45.5187 268.875 45.5187C275.775 45.5187 281.025 48.4385 284.625 54.2032C288.3 48.3636 293.55 45.4438 300.375 45.4438C302.55 45.4438 304.575 45.7433 306.525 46.4171C308.475 47.016 310.125 48.0642 311.475 49.4118C312.9 50.7594 313.95 52.5561 314.775 54.7273C315.6 56.8984 315.975 59.5187 315.975 62.5882V92.6845H299.55V69.7754C299.55 67.4545 299.4 65.508 299.025 64.0107C298.725 62.5134 298.2 61.3155 297.6 60.492C297 59.6684 296.25 59.0695 295.35 58.77C294.525 58.4706 293.625 58.3209 292.65 58.3209C287.4 58.3209 284.775 62.139 284.775 69.7754V92.6845H268.5V69.7754C268.5 67.4545 268.35 65.508 268.05 63.9358C267.75 62.3636 267.3 61.1658 266.7 60.2674C266.1 59.369 265.35 58.77 264.45 58.3957C263.55 58.0963 262.5 57.8717 261.3 57.8717C260.25 57.8717 259.275 58.0214 258.375 58.3209C257.475 58.6203 256.65 59.2192 255.975 60.1176C255.3 61.016 254.7 62.2139 254.325 63.7112C253.95 65.2834 253.725 67.2299 253.725 69.7005V92.6096H237.3V46.2674H237.45Z" fill="#1B0B5B"/>
<path d="M340.05 17.5936V50.9091C343.95 46.8663 348.75 44.8449 354.525 44.8449C357.975 44.8449 361.125 45.5187 363.975 46.7914C366.825 48.0642 369.3 49.861 371.325 52.0321C373.35 54.2032 374.925 56.8235 376.05 59.8182C377.175 62.8128 377.775 65.9572 377.775 69.3262C377.775 72.7701 377.175 75.9893 375.975 78.984C374.775 81.9786 373.125 84.5989 371.025 86.8449C368.925 89.0909 366.45 90.8128 363.525 92.1604C360.675 93.4332 357.525 94.1069 354.225 94.1069C348.15 94.1069 343.425 91.9358 339.9 87.5187V92.6845H323.475V17.5936H340.05ZM360.75 69.6257C360.75 68.2032 360.45 66.7808 359.925 65.508C359.4 64.2353 358.65 63.1123 357.675 62.139C356.7 61.1658 355.575 60.4171 354.3 59.8182C353.025 59.2193 351.675 58.9947 350.1 58.9947C348.675 58.9947 347.325 59.2941 346.05 59.8182C344.775 60.3422 343.65 61.0909 342.75 62.0642C341.85 63.0374 341.025 64.1604 340.5 65.4332C339.9 66.7059 339.675 68.1283 339.675 69.5508C339.675 70.9733 339.975 72.3209 340.5 73.5936C341.025 74.8663 341.775 75.9893 342.75 76.8877C343.725 77.7861 344.85 78.6096 346.125 79.1337C347.4 79.7326 348.825 79.9572 350.25 79.9572C351.675 79.9572 353.025 79.6578 354.3 79.1337C355.575 78.6096 356.7 77.861 357.6 76.8877C358.5 75.9144 359.325 74.7914 359.85 73.5187C360.45 72.3209 360.75 70.9733 360.75 69.6257Z" fill="#1B0B5B"/>
<path d="M421.2 46.2674H437.7V92.6845H421.2V87.5187C417.675 91.9358 412.95 94.1069 406.95 94.1069C403.575 94.1069 400.425 93.508 397.65 92.2353C394.8 91.0374 392.325 89.2406 390.225 87.0695C388.125 84.8235 386.475 82.2032 385.275 79.2085C384.075 76.2139 383.475 72.9198 383.475 69.3262C383.475 66.0321 384.075 62.8877 385.2 59.893C386.325 56.8984 387.975 54.2781 390 52.1069C392.025 49.8609 394.5 48.139 397.35 46.7914C400.2 45.5187 403.35 44.8449 406.8 44.8449C412.575 44.8449 417.375 46.8663 421.2 50.9091V46.2674ZM400.575 69.3262C400.575 70.8235 400.875 72.246 401.4 73.5187C401.925 74.7914 402.675 75.9144 403.65 76.8877C404.55 77.8609 405.675 78.6096 407.025 79.1337C408.3 79.6577 409.725 79.9572 411.225 79.9572C412.65 79.9572 414.075 79.6577 415.35 79.1337C416.625 78.6096 417.75 77.8609 418.725 76.8877C419.625 75.9144 420.45 74.7914 420.975 73.5187C421.575 72.246 421.8 70.8984 421.8 69.4759C421.8 68.0535 421.5 66.631 420.975 65.3583C420.375 64.0855 419.625 62.9626 418.725 61.9893C417.825 61.016 416.7 60.2674 415.35 59.7433C414.075 59.2192 412.65 58.9198 411.225 58.9198C409.725 58.9198 408.3 59.2192 407.025 59.7433C405.75 60.2674 404.625 61.016 403.65 61.9893C402.75 62.9626 402 64.0855 401.4 65.2834C400.875 66.5561 400.575 67.9037 400.575 69.3262Z" fill="#1B0B5B"/>
<path d="M477.825 58.1711C474.825 56.5989 471.825 55.8503 468.975 55.8503C467.475 55.8503 466.275 56.1497 465.3 56.7487C464.4 57.3476 463.875 58.1711 463.875 59.2193C463.875 59.7433 463.95 60.1925 464.1 60.5669C464.25 60.8663 464.55 61.2406 465.075 61.5401C465.6 61.8396 466.35 62.139 467.325 62.3636C468.3 62.5882 469.65 62.8877 471.3 63.262C475.8 64.1604 479.175 65.8075 481.425 68.1284C483.675 70.4492 484.8 73.4439 484.8 77.0374C484.8 79.7326 484.275 82.2032 483.15 84.3743C482.1 86.5455 480.525 88.3423 478.65 89.8396C476.7 91.3369 474.375 92.4599 471.675 93.2834C468.975 94.107 465.975 94.4813 462.675 94.4813C456.375 94.4813 450.225 92.6845 444.075 89.1658L450.075 77.5615C454.65 80.7059 459 82.2781 463.125 82.2781C464.625 82.2781 465.9 81.9786 466.875 81.3048C467.85 80.631 468.3 79.8075 468.3 78.7594C468.3 78.1604 468.225 77.6364 468.075 77.262C467.925 76.8877 467.625 76.5134 467.1 76.2139C466.65 75.9144 465.9 75.615 465 75.3155C464.1 75.016 462.825 74.7915 461.325 74.492C456.225 73.4439 452.7 71.9465 450.675 69.9251C448.65 67.9038 447.675 65.1337 447.675 61.5401C447.675 58.9198 448.125 56.5989 449.1 54.5027C450.075 52.4064 451.425 50.6845 453.3 49.1872C455.1 47.7647 457.275 46.6417 459.9 45.8182C462.45 45.0695 465.3 44.6203 468.45 44.6203C473.55 44.6203 478.575 45.5936 483.375 47.615L477.825 58.1711Z" fill="#1B0B5B"/>
<path d="M522.15 58.1711C519.15 56.5989 516.15 55.8503 513.3 55.8503C511.8 55.8503 510.6 56.1497 509.625 56.7487C508.725 57.3476 508.2 58.1711 508.2 59.2193C508.2 59.7433 508.275 60.1925 508.425 60.5669C508.575 60.8663 508.875 61.2406 509.4 61.5401C509.925 61.8396 510.675 62.139 511.65 62.3636C512.625 62.5882 513.975 62.8877 515.625 63.262C520.125 64.1604 523.5 65.8075 525.75 68.1284C528 70.4492 529.125 73.4439 529.125 77.0374C529.125 79.7326 528.6 82.2032 527.475 84.3743C526.425 86.5455 524.85 88.3423 522.975 89.8396C521.025 91.3369 518.7 92.4599 516 93.2834C513.3 94.107 510.3 94.4813 507 94.4813C500.7 94.4813 494.55 92.6845 488.4 89.1658L494.4 77.5615C498.975 80.7059 503.325 82.2781 507.45 82.2781C508.95 82.2781 510.225 81.9786 511.2 81.3048C512.175 80.631 512.625 79.8075 512.625 78.7594C512.625 78.1604 512.55 77.6364 512.4 77.262C512.25 76.8877 511.95 76.5134 511.425 76.2139C510.975 75.9144 510.225 75.615 509.325 75.3155C508.425 75.016 507.15 74.7915 505.65 74.492C500.55 73.4439 497.025 71.9465 495 69.9251C492.975 67.9038 492 65.1337 492 61.5401C492 58.9198 492.45 56.5989 493.425 54.5027C494.4 52.4064 495.75 50.6845 497.625 49.1872C499.425 47.7647 501.6 46.6417 504.225 45.8182C506.775 45.0695 509.625 44.6203 512.775 44.6203C517.875 44.6203 522.9 45.5936 527.7 47.615L522.15 58.1711Z" fill="#1B0B5B"/>
<path d="M571.5 46.2674H588V92.6845H571.5V87.5187C567.975 91.9358 563.25 94.1069 557.25 94.1069C553.875 94.1069 550.725 93.508 547.95 92.2353C545.1 91.0374 542.625 89.2406 540.525 87.0695C538.425 84.8235 536.775 82.2032 535.575 79.2085C534.375 76.2139 533.775 72.9198 533.775 69.3262C533.775 66.0321 534.375 62.8877 535.5 59.893C536.625 56.8984 538.275 54.2781 540.3 52.1069C542.325 49.8609 544.8 48.139 547.65 46.7914C550.5 45.5187 553.65 44.8449 557.1 44.8449C562.875 44.8449 567.675 46.8663 571.5 50.9091V46.2674ZM550.8 69.3262C550.8 70.8235 551.1 72.246 551.625 73.5187C552.15 74.7914 552.9 75.9144 553.875 76.8877C554.775 77.8609 555.9 78.6096 557.25 79.1337C558.525 79.6577 559.95 79.9572 561.45 79.9572C562.875 79.9572 564.3 79.6577 565.575 79.1337C566.85 78.6096 567.975 77.8609 568.95 76.8877C569.85 75.9144 570.675 74.7914 571.2 73.5187C571.8 72.246 572.025 70.8984 572.025 69.4759C572.025 68.0535 571.725 66.631 571.2 65.3583C570.6 64.0855 569.85 62.9626 568.95 61.9893C568.05 61.016 566.925 60.2674 565.575 59.7433C564.3 59.2192 562.875 58.9198 561.45 58.9198C559.95 58.9198 558.525 59.2192 557.25 59.7433C555.975 60.2674 554.85 61.016 553.875 61.9893C552.975 62.9626 552.225 64.0855 551.625 65.2834C551.1 66.5561 550.8 67.9037 550.8 69.3262Z" fill="#1B0B5B"/>
<path d="M631.35 17.5936H647.85V92.6096H631.35V87.4438C627.825 91.861 623.1 94.0321 617.1 94.0321C613.725 94.0321 610.575 93.4332 607.8 92.1604C604.95 90.8877 602.475 89.1658 600.375 86.9198C598.275 84.6738 596.625 82.0535 595.425 79.0588C594.225 76.0642 593.625 72.7701 593.625 69.3262C593.625 66.0321 594.15 62.8877 595.275 59.893C596.4 56.8984 597.975 54.2781 600 52.1069C602.025 49.861 604.5 48.139 607.35 46.7914C610.2 45.5187 613.35 44.8449 616.8 44.8449C622.575 44.8449 627.375 46.8663 631.2 50.9091V17.5936H631.35ZM610.725 69.3262C610.725 70.8235 611.025 72.246 611.55 73.5187C612.075 74.7914 612.825 75.9144 613.8 76.8877C614.7 77.861 615.825 78.6096 617.175 79.1337C618.45 79.6577 619.875 79.9572 621.375 79.9572C622.8 79.9572 624.225 79.6577 625.5 79.1337C626.775 78.6096 627.9 77.861 628.875 76.8877C629.775 75.9144 630.6 74.7914 631.125 73.5187C631.725 72.246 631.95 70.8984 631.95 69.4759C631.95 68.0535 631.65 66.631 631.125 65.3583C630.525 64.0856 629.775 62.9626 628.875 61.9893C627.975 61.016 626.85 60.2674 625.5 59.7433C624.225 59.2192 622.8 58.9198 621.375 58.9198C619.95 58.9198 618.525 59.2192 617.25 59.7433C615.975 60.2674 614.85 61.016 613.875 61.9893C612.975 62.9626 612.15 64.0856 611.625 65.2834C611.025 66.5561 610.725 67.9037 610.725 69.3262Z" fill="#1B0B5B"/>
<path d="M653.55 69.0267C653.55 65.5829 654.225 62.3636 655.65 59.369C657.075 56.3743 658.95 53.8289 661.425 51.5829C663.9 49.4118 666.825 47.615 670.275 46.4171C673.65 45.1444 677.4 44.5454 681.45 44.5454C685.425 44.5454 689.1 45.1444 692.55 46.4171C695.925 47.6898 698.925 49.3369 701.4 51.5829C703.875 53.754 705.825 56.3743 707.25 59.4438C708.675 62.5134 709.35 65.8823 709.35 69.5508C709.35 73.2192 708.675 76.5882 707.25 79.6577C705.825 82.7273 703.875 85.3476 701.4 87.5187C698.925 89.6898 695.925 91.4117 692.475 92.6096C689.025 93.8075 685.275 94.4064 681.225 94.4064C677.25 94.4064 673.575 93.8075 670.2 92.6096C666.825 91.4117 663.9 89.6898 661.425 87.4438C658.95 85.1978 657.075 82.5775 655.65 79.4331C654.225 76.2888 653.55 72.8449 653.55 69.0267ZM670.875 69.2513C670.875 70.8235 671.175 72.246 671.7 73.5187C672.3 74.7914 673.05 75.9144 673.95 76.8877C674.85 77.8609 675.975 78.6096 677.325 79.1337C678.6 79.6577 680.025 79.9572 681.45 79.9572C682.875 79.9572 684.3 79.6577 685.575 79.1337C686.85 78.6096 687.975 77.8609 688.95 76.8877C689.85 75.9144 690.675 74.7914 691.2 73.5187C691.8 72.246 692.025 70.8235 692.025 69.3262C692.025 67.9037 691.725 66.4813 691.2 65.2085C690.6 63.9358 689.85 62.8128 688.95 61.8396C688.05 60.8663 686.925 60.1176 685.575 59.5936C684.3 59.0695 682.875 58.77 681.45 58.77C680.025 58.77 678.6 59.0695 677.325 59.5936C676.05 60.1176 674.925 60.8663 673.95 61.8396C673.05 62.8128 672.225 63.9358 671.7 65.2085C671.1 66.4064 670.875 67.754 670.875 69.2513Z" fill="#1B0B5B"/>
<path d="M9.89999 112C7.34999 112 4.79999 111.027 2.92499 109.08C-1.26362e-05 106.16 -0.825012 101.743 0.899987 97.9251L43.125 5.76471C44.7 2.24599 48.15 0 52.125 0C56.025 0 59.475 2.24599 61.125 5.76471L88.5 65.5829L117.525 52.3316C121.35 50.6096 125.7 51.3583 128.7 54.3529C131.625 57.2727 132.45 61.6898 130.725 65.508L112.875 104.438C111.225 108.032 107.775 110.203 103.875 110.203C99.975 110.203 96.45 107.957 94.875 104.438L83.4 79.4332L14.1 111.102C12.75 111.701 11.325 112 9.89999 112ZM52.125 11.1551L11.025 100.995L79.05 69.9251L52.125 11.1551ZM92.85 75.0909L103.8 99.0481L120.6 62.3636L92.85 75.0909Z" fill="#795CEC"/>
</svg>
