<svg viewBox="0 0 501 553" fill="none" xmlns="http://www.w3.org/2000/svg">
<path d="M43.8 419.915C34.2 419.915 24.8 416.122 17.6 409.033C6.50001 397.951 3.50001 381.578 10.1 367.301L168.2 21.6647C174.4 8.28649 187.3 0 202.1 0C216.8 0 229.8 8.28649 235.9 21.6647L338.5 245.899L447.3 196.18C461.6 189.691 478 192.586 489.1 203.668C500.2 214.75 503.2 231.123 496.6 245.4L429.7 391.462C423.6 404.84 410.6 413.126 395.9 413.126C381.2 413.126 368.2 404.84 362.1 391.462L319.2 297.715L59.4 416.521C54.3 418.817 49 419.915 43.8 419.915ZM202.1 41.8318L47.9 378.782L302.9 262.173L202.1 41.8318ZM354.8 281.441L395.9 371.295L458.8 233.819L354.8 281.441Z" fill="#795CEC"/>
<path d="M464.1 510.667H478.2V517.157C479.7 514.761 481.6 512.964 483.7 511.666C485.9 510.368 488.4 509.769 491.3 509.769C491.7 509.769 492.1 509.769 492.5 509.769C492.9 509.769 493.4 509.869 494 509.968V523.446C492.1 522.548 490.1 522.049 487.9 522.049C484.6 522.049 482.2 523.047 480.5 524.944C478.9 526.841 478 529.736 478 533.43V550.502H463.9V510.667H464.1Z" fill="#1B0B5B"/>
<path d="M32.4 510.667H46.6V550.602H32.4V546.11C29.4 549.903 25.3 551.8 20.2 551.8C17.3 551.8 14.6 551.301 12.2 550.203C9.8 549.105 7.60001 547.607 5.80001 545.71C4.00001 543.813 2.60001 541.517 1.60001 538.921C0.600006 536.326 0.100006 533.53 0.100006 530.435C0.100006 527.54 0.600006 524.844 1.60001 522.348C2.60001 519.753 4.00001 517.556 5.70001 515.659C7.50001 513.762 9.60001 512.265 12 511.067C14.4 509.969 17.1 509.37 20.1 509.37C25.1 509.37 29.2 511.067 32.5 514.561V510.667H32.4ZM14.7 530.535C14.7 531.833 14.9 533.031 15.4 534.129C15.9 535.227 16.5 536.226 17.3 537.025C18.1 537.823 19.1 538.522 20.2 538.921C21.3 539.421 22.5 539.62 23.8 539.62C25 539.62 26.2 539.421 27.3 538.921C28.4 538.422 29.4 537.823 30.2 537.025C31 536.226 31.7 535.227 32.1 534.129C32.6 533.031 32.8 531.833 32.8 530.635C32.8 529.437 32.6 528.239 32.1 527.141C31.6 526.042 31 525.044 30.2 524.245C29.4 523.447 28.4 522.748 27.3 522.348C26.2 521.849 25 521.65 23.8 521.65C22.5 521.65 21.3 521.849 20.2 522.348C19.1 522.848 18.1 523.447 17.3 524.245C16.5 525.044 15.9 526.042 15.4 527.041C14.9 528.139 14.7 529.237 14.7 530.535Z" fill="#1B0B5B"/>
<path d="M53.1 510.667H67.2V515.559C71 511.865 75.4 510.068 80.1 510.068C86 510.068 90.5 512.564 93.7 517.556C96.9 512.564 101.4 509.969 107.3 509.969C109.2 509.969 110.9 510.268 112.6 510.767C114.3 511.266 115.7 512.165 116.9 513.363C118.1 514.561 119 516.059 119.7 517.955C120.4 519.852 120.8 522.049 120.8 524.744V550.602H106.7V530.934C106.7 528.938 106.6 527.24 106.3 525.942C106 524.645 105.6 523.646 105.1 522.947C104.6 522.249 103.9 521.749 103.2 521.45C102.5 521.15 101.7 521.05 100.9 521.05C96.4 521.05 94.1 524.345 94.1 530.934V550.602H79.9V530.934C79.9 528.938 79.8 527.24 79.5 525.942C79.2 524.645 78.9 523.546 78.4 522.748C77.9 521.949 77.3 521.45 76.5 521.15C75.7 520.851 74.8 520.751 73.8 520.751C72.9 520.751 72.1 520.851 71.3 521.15C70.5 521.45 69.8 521.949 69.2 522.648C68.6 523.447 68.1 524.445 67.8 525.743C67.5 527.041 67.3 528.838 67.3 530.934V550.602H53.1V510.667Z" fill="#1B0B5B"/>
<path d="M141.4 486.008V514.661C144.7 511.167 148.9 509.469 153.9 509.469C156.9 509.469 159.6 510.068 162 511.167C164.5 512.265 166.6 513.762 168.3 515.659C170 517.556 171.4 519.753 172.4 522.348C173.4 524.944 173.9 527.64 173.9 530.535C173.9 533.53 173.4 536.226 172.4 538.821C171.4 541.417 170 543.713 168.2 545.61C166.4 547.507 164.2 549.005 161.8 550.203C159.3 551.301 156.7 551.9 153.8 551.9C148.6 551.9 144.5 550.003 141.5 546.209V550.602H127.4V486.008H141.4ZM159.2 530.735C159.2 529.537 159 528.339 158.5 527.24C158 526.142 157.4 525.144 156.6 524.345C155.8 523.546 154.8 522.848 153.7 522.348C152.6 521.849 151.4 521.649 150.1 521.649C148.9 521.649 147.7 521.849 146.6 522.348C145.5 522.848 144.6 523.447 143.8 524.245C143 525.044 142.3 526.042 141.9 527.141C141.4 528.239 141.2 529.437 141.2 530.635C141.2 531.833 141.4 533.031 141.9 534.129C142.4 535.227 143 536.126 143.8 536.925C144.6 537.723 145.6 538.422 146.7 538.821C147.8 539.321 149 539.52 150.2 539.52C151.4 539.52 152.6 539.321 153.7 538.821C154.8 538.322 155.7 537.723 156.5 536.925C157.3 536.126 158 535.128 158.4 534.029C159 533.031 159.2 531.933 159.2 530.735Z" fill="#1B0B5B"/>
<path d="M211.3 510.667H225.5V550.602H211.3V546.11C208.3 549.903 204.2 551.8 199.1 551.8C196.2 551.8 193.5 551.301 191.1 550.203C188.7 549.105 186.5 547.607 184.7 545.71C182.9 543.813 181.5 541.517 180.5 538.921C179.5 536.326 179 533.53 179 530.435C179 527.54 179.5 524.844 180.5 522.348C181.5 519.753 182.9 517.556 184.6 515.659C186.4 513.762 188.5 512.265 190.9 511.067C193.3 509.969 196 509.37 199 509.37C204 509.37 208.1 511.067 211.4 514.561V510.667H211.3ZM193.5 530.535C193.5 531.833 193.7 533.031 194.2 534.129C194.7 535.227 195.3 536.226 196.1 537.025C196.9 537.823 197.9 538.522 199 538.921C200.1 539.421 201.3 539.62 202.6 539.62C203.8 539.62 205 539.421 206.1 538.921C207.2 538.422 208.2 537.823 209 537.025C209.8 536.226 210.5 535.227 210.9 534.129C211.4 533.031 211.6 531.833 211.6 530.635C211.6 529.437 211.4 528.239 210.9 527.141C210.4 526.042 209.8 525.044 209 524.245C208.2 523.447 207.2 522.748 206.1 522.348C205 521.849 203.8 521.65 202.6 521.65C201.3 521.65 200.1 521.849 199 522.348C197.9 522.848 196.9 523.447 196.1 524.245C195.3 525.044 194.7 526.042 194.2 527.041C193.7 528.139 193.5 529.237 193.5 530.535Z" fill="#1B0B5B"/>
<path d="M260 520.951C257.4 519.553 254.9 518.954 252.4 518.954C251.1 518.954 250 519.253 249.2 519.753C248.4 520.252 248 520.951 248 521.849C248 522.348 248.1 522.648 248.2 522.947C248.3 523.247 248.6 523.546 249.1 523.746C249.5 524.046 250.2 524.245 251 524.445C251.9 524.645 253 524.944 254.4 525.244C258.3 526.042 261.2 527.44 263.1 529.437C265 531.434 266 534.029 266 537.124C266 539.421 265.5 541.517 264.6 543.414C263.7 545.311 262.4 546.809 260.7 548.106C259 549.404 257 550.403 254.7 551.102C252.4 551.8 249.8 552.2 247 552.2C241.6 552.2 236.3 550.702 231 547.607L236.1 537.624C240 540.319 243.8 541.717 247.3 541.717C248.6 541.717 249.7 541.417 250.5 540.818C251.3 540.219 251.7 539.52 251.7 538.622C251.7 538.123 251.6 537.723 251.5 537.324C251.4 537.025 251.1 536.725 250.7 536.425C250.3 536.126 249.7 535.926 248.9 535.627C248.1 535.427 247 535.128 245.7 534.928C241.3 534.029 238.3 532.732 236.5 531.034C234.8 529.337 233.9 526.941 233.9 523.846C233.9 521.65 234.3 519.653 235.1 517.856C235.9 516.059 237.1 514.561 238.7 513.263C240.3 512.065 242.1 511.067 244.4 510.368C246.6 509.669 249.1 509.37 251.8 509.37C256.2 509.37 260.5 510.268 264.7 511.965L260 520.951Z" fill="#1B0B5B"/>
<path d="M298.1 520.951C295.5 519.553 293 518.954 290.5 518.954C289.2 518.954 288.1 519.253 287.3 519.753C286.5 520.252 286.1 520.951 286.1 521.849C286.1 522.348 286.2 522.648 286.3 522.947C286.4 523.247 286.7 523.546 287.2 523.746C287.6 524.046 288.3 524.245 289.1 524.445C290 524.645 291.1 524.944 292.5 525.244C296.4 526.042 299.3 527.44 301.2 529.437C303.1 531.434 304.1 534.029 304.1 537.124C304.1 539.421 303.6 541.517 302.7 543.414C301.8 545.311 300.5 546.809 298.8 548.106C297.1 549.404 295.1 550.403 292.8 551.102C290.5 551.8 287.9 552.2 285.1 552.2C279.7 552.2 274.4 550.702 269.1 547.607L274.2 537.624C278.1 540.319 281.9 541.717 285.4 541.717C286.7 541.717 287.8 541.417 288.6 540.818C289.4 540.219 289.8 539.52 289.8 538.622C289.8 538.123 289.7 537.723 289.6 537.324C289.5 537.025 289.2 536.725 288.8 536.425C288.4 536.126 287.8 535.926 287 535.627C286.2 535.427 285.1 535.128 283.8 534.928C279.4 534.029 276.4 532.732 274.6 531.034C272.9 529.337 272 526.941 272 523.846C272 521.65 272.4 519.653 273.2 517.856C274 516.059 275.2 514.561 276.8 513.263C278.4 512.065 280.2 511.067 282.5 510.368C284.7 509.669 287.2 509.37 289.9 509.37C294.3 509.37 298.6 510.268 302.8 511.965L298.1 520.951Z" fill="#1B0B5B"/>
<path d="M340.5 510.667H354.7V550.602H340.5V546.11C337.5 549.903 333.4 551.8 328.3 551.8C325.4 551.8 322.7 551.301 320.3 550.203C317.9 549.105 315.7 547.607 313.9 545.71C312.1 543.813 310.7 541.517 309.7 538.921C308.7 536.326 308.2 533.53 308.2 530.435C308.2 527.54 308.7 524.844 309.7 522.348C310.7 519.753 312.1 517.556 313.8 515.659C315.6 513.762 317.7 512.265 320.1 511.067C322.5 509.969 325.2 509.37 328.2 509.37C333.2 509.37 337.3 511.067 340.6 514.561V510.667H340.5ZM322.8 530.535C322.8 531.833 323 533.031 323.5 534.129C324 535.227 324.6 536.226 325.4 537.025C326.2 537.823 327.2 538.522 328.3 538.921C329.4 539.421 330.6 539.62 331.9 539.62C333.1 539.62 334.3 539.421 335.4 538.921C336.5 538.422 337.5 537.823 338.3 537.025C339.1 536.226 339.8 535.227 340.2 534.129C340.7 533.031 340.9 531.833 340.9 530.635C340.9 529.437 340.7 528.239 340.2 527.141C339.7 526.042 339.1 525.044 338.3 524.245C337.5 523.447 336.5 522.748 335.4 522.348C334.3 521.849 333.1 521.65 331.9 521.65C330.6 521.65 329.4 521.849 328.3 522.348C327.2 522.848 326.2 523.447 325.4 524.245C324.6 525.044 324 526.042 323.5 527.041C323 528.139 322.8 529.237 322.8 530.535Z" fill="#1B0B5B"/>
<path d="M392 486.008H406.2V550.602H392V546.11C389 549.903 384.9 551.8 379.8 551.8C376.9 551.8 374.2 551.301 371.8 550.203C369.4 549.105 367.2 547.607 365.4 545.71C363.6 543.813 362.2 541.517 361.2 538.921C360.2 536.326 359.7 533.53 359.7 530.535C359.7 527.64 360.2 524.944 361.1 522.448C362.1 519.852 363.4 517.656 365.2 515.759C367 513.862 369.1 512.365 371.6 511.167C374.1 510.068 376.8 509.469 379.7 509.469C384.7 509.469 388.8 511.167 392.1 514.661V486.008H392ZM374.3 530.535C374.3 531.833 374.5 533.031 375 534.129C375.5 535.227 376.1 536.226 376.9 537.024C377.7 537.823 378.7 538.522 379.8 538.921C380.9 539.42 382.1 539.62 383.4 539.62C384.6 539.62 385.8 539.42 386.9 538.921C388 538.422 389 537.823 389.8 537.024C390.6 536.226 391.3 535.227 391.7 534.129C392.2 533.031 392.4 531.833 392.4 530.635C392.4 529.437 392.2 528.239 391.7 527.141C391.2 526.042 390.6 525.044 389.8 524.245C389 523.447 388 522.748 386.9 522.348C385.8 521.849 384.6 521.649 383.4 521.649C382.2 521.649 381 521.849 379.9 522.348C378.8 522.848 377.8 523.447 377 524.245C376.2 525.044 375.5 526.042 375.1 527.041C374.5 528.139 374.3 529.237 374.3 530.535Z" fill="#1B0B5B"/>
<path d="M411.1 530.236C411.1 527.24 411.7 524.545 412.9 521.949C414.1 519.353 415.8 517.157 417.9 515.26C420 513.363 422.6 511.866 425.5 510.767C428.4 509.669 431.6 509.17 435.1 509.17C438.5 509.17 441.7 509.669 444.6 510.767C447.5 511.866 450.1 513.263 452.2 515.16C454.4 517.057 456 519.353 457.2 521.949C458.4 524.545 459 527.44 459 530.635C459 533.83 458.4 536.725 457.2 539.321C456 541.917 454.3 544.213 452.2 546.11C450.1 548.007 447.5 549.504 444.5 550.503C441.5 551.501 438.3 552.1 434.8 552.1C431.4 552.1 428.2 551.601 425.3 550.503C422.4 549.504 419.9 548.007 417.8 546.11C415.7 544.213 414 541.917 412.9 539.221C411.7 536.525 411.1 533.53 411.1 530.236ZM426 530.435C426 531.833 426.2 533.031 426.7 534.129C427.2 535.227 427.8 536.226 428.6 537.025C429.4 537.823 430.4 538.522 431.5 538.921C432.6 539.421 433.8 539.62 435 539.62C436.2 539.62 437.4 539.421 438.5 538.921C439.6 538.422 440.6 537.823 441.4 537.025C442.2 536.226 442.9 535.227 443.3 534.129C443.8 533.031 444 531.833 444 530.535C444 529.337 443.8 528.139 443.3 527.041C442.8 525.943 442.2 524.944 441.4 524.146C440.6 523.347 439.6 522.648 438.5 522.249C437.4 521.749 436.2 521.55 435 521.55C433.8 521.55 432.6 521.749 431.5 522.249C430.4 522.748 429.4 523.347 428.6 524.146C427.8 524.944 427.1 525.943 426.7 527.041C426.3 528.039 426 529.137 426 530.435Z" fill="#1B0B5B"/>
</svg>
