<svg xmlns="http://www.w3.org/2000/svg" xmlns:xlink="http://www.w3.org/1999/xlink" viewBox="0 0 513 514" fill="#fff" fill-rule="evenodd" stroke="#000" stroke-linecap="round" stroke-linejoin="round"><use xlink:href="#A" x=".5" y=".5"/><symbol id="A" overflow="visible"><g stroke="none" fill-rule="nonzero"><path d="M0 76.8C0 34.253 34.253 0 76.8 0h358.4C477.747 0 512 34.253 512 76.8v358.4c0 42.547-34.253 76.8-76.8 76.8H76.8C34.253 512 0 477.747 0 435.2z" fill="#066da5"/><path d="M296 245h42v-38h-42zm-50 0h42v-38h-42zm-49 0h42v-38h-42zm-49 0h41v-38h-41zm-50 0h42v-38H98zm50-46h41v-38h-41zm49 0h42v-38h-42zm49 0h42v-38h-42zm0-46h42v-38h-42zm226 75s-18-17-55-11c-4-29-35-46-35-46s-29 35-8 74c-6 3-16 7-31 7H68c-5 19-5 145 133 145 99 0 173-46 208-130 52 4 63-39 63-39z"/></g></symbol></svg>